<mxfile host="app.diagrams.net" modified="2021-09-22T02:32:17.568Z" agent="5.0 (Windows NT 10.0; Win64; x64) AppleWebKit/537.36 (KHTML, like Gecko) Chrome/93.0.4577.82 Safari/537.36" etag="ShLj2Yw-FjkC_Bmc0pnV" version="15.2.9" type="github">
  <diagram id="R2lEEEUBdFMjLlhIrx00" name="Page-1">
    <mxGraphModel dx="569" dy="333" grid="1" gridSize="10" guides="1" tooltips="1" connect="1" arrows="1" fold="1" page="1" pageScale="1" pageWidth="850" pageHeight="1100" math="0" shadow="0" extFonts="Permanent Marker^https://fonts.googleapis.com/css?family=Permanent+Marker">
      <root>
        <mxCell id="0" />
        <mxCell id="1" parent="0" />
        <mxCell id="_NCpMEQ4pB6o6P57JlgW-2" value="" style="shape=image;verticalLabelPosition=bottom;labelBackgroundColor=#ffffff;verticalAlign=top;aspect=fixed;imageAspect=0;image=data:image/png,iVBORw0KGgoAAAANSUhEUgAAArwAAAGFCAYAAAAfJyC7AAAgAElEQVR4Aey9PY7czJatfUdzpqEB9AA0CM1BQE9AA2iU3VcDkHUgoy2ZQlsCGmi58uTKrQ9P3e/R2doKJplMZmUmuQwiGBE79u+K4CIr31f/5x//+MdzruQgGAgGgoFgIBgIBoKBYGCvGPg/ew0scWXTBgPBQDAQDAQDwUAwEAyAgRDefOHOF/5gIBgIBoKBYCAYCAZ2jYEQ3gB81wDPm33e7IOBYCAYCAaCgWAghDeEN4Q3GAgGgoFgIBgIBoKBXWPgqoT348ePz79+/Xp+//79rpOYN8e8OQYDwUAwEAwEA8FAMHC/GDib8L579+6FxEJk+/X169dn5mvBv3z58vzjx4/nN2/e/DGODOu/ffv213hdzz3E+fv3788/f/58fvv27ax8X5/+/QIwtUltgoFgIBgIBoKBYODaGDib8OLQp0+f/iCrkFmILQQWctudZu7Dhw9/jc8RXvRKdJ+env5a3+2knw0TDAQDwUAwEAwEA8FAMNAxsAnhRSk/W/CLbzeyti/Z7V+N1+rLumyAYCAYCAaCgWAgGAgGjoeBTQhv/cL7+fPnly+xEGB/ziARdg6g8SXY8RHw+KLLfF0zksvY8UCbmqfmwUAwEAwEA8FAMHAOBi4ivBJW20pO+W2uv7mFEHOPnP8B29wXYdZLePnSyz0kOT9tCMDPAXhkg5dgIBgIBoKBYCAYuIjw+h+c1S+8U4RUAruU8EqQ+b0wQOVnDY7lP1wLcHN4BQPBQDAQDAQDwUAwsBQDmxBejPUvtpBg/u8KEl2/Ai8lvMrXQNSljjqX+4A+GAgGgoFgIBgIBoKBYGCEgasQXr7A+jMESC+GO1ntBLk71+VHOvqa9APyYCAYCAaCgWAgGAgGgoGOgU0Ib/1Jg/9bMr/QMld/juD/nmyO8CKHDv7DN5xGB330o7MHkn7AHQwEA8FAMBAMBAPBQDAwwsDZhFfiKaG15fe1kFN/X8tvbxnj4j9m40KWPo7wj1S4VlLbHeT3wPX/5sAa9XfZ9APwYCAYCAaCgWAgGAgGgoERBs4mvCMlGQu4goFgIBgIBoKBYCAYCAbuFQNnE16/yt66vdeExq9s9mAgGAgGgoFgIBgIBu4LA2cT3hTwvgqYeqQewUAwEAwEA8FAMBAMnMZACO8/TicoAEp+goFgIBgIBoKBYCAYeGwMhPCG8Ob/eBEMBAPBQDAQDAQDwcCuMRDCG4DvGuB5I3/sN/LUL/ULBoKBYCAY2AIDIbwhvCG8wUAwEAwEA8FAMBAM7BoDIbwB+K4BvsVbYXTk60IwEAwEA8FAMPDYGAjhDeEN4Q0GgoFgIBgIBoKBYGDXGAjhDcB3DfC8kT/2G3nql/oFA8FAMBAMbIGBEN4Q3hDeYCAYCAaCgWAgGAgGdo2BEN4AfNcA3+KtMDrydSEYCAaCgWAgGHhsDITwhvCG8AYDwUAwEAwEA8FAMLBrDITwBuC7BnjeyB/7jTz1S/2CgWAgGAgGtsBACG8I790R3q9fvz6/ffv21f169+7d88+fP5+/f//+6ra32MzRkYfCHjBwq/2/h9wlhpwBwcA0BkJ4NyK8b968eSFLnz59ugpZQv+PHz+eeRhsDehfv35dRe9SP2vuyN/T09PmMZ7y5f3798/kgBa5WxJe4scXyPcpnx9xzjy/dn0fKVcfP358lfpbC+zdOj+32P/us1u8WG+Zb+v44cOHm9dxy7heQxc5q+f+JTZv/Qy9xPcjrT0c4fUrHgD14qvely9fLvqqyHqI0oiofPv27XkpEWY9xBbfKhA/f/78QgQhvBKzOr/kvsZe5SEg2FurV13kAD2nYmWOfLiGltg4fKbyV2XPuScualvtjWrBGLFjH/94AJ9jZ0tZbONH9XmN/lGcU3qs/6U2q/6RfesLvrfMMfiZw1317Rb3S/YG5Iu8gcUtazEVLz6xP7asxZStU+On9v8W51K3TZ7B4po8T52h3cYW/aX7kjqeu6d8sSK/2MHfGhv6jEE/WANWTp3vrjm3RaekHT+I6Vwd58gTBzFiZwv8m6NLn6FzMeDv3FlHPODb85bcPvqL3Vxels4fjvCSGN/sTJJkh8Ofzeb40haA8YCa2jijh/9IN0DuF3Lo9QCo9yMdc2M9duW3OmTYZKcORObqw7zGgw+n1urrXEs9ex612WuBrF+5OLQ8dOdsXHueeq/Bon71OB2faiEd5mhK5pzxbr/mlpzTP0ffSBas9DpvgZ+RrS3GluwNaw4mydMWdk/poA7i/5Tctebm9j/13ToPYF0CAF68J0b6c/tg6gy9Ro6W7kv8PndPgUefK/pubNTFMXygT154RtZ8KXNpq37qDRF1H1yqd2o9uSKuqfk14/jc87lGz9yauXOE2Ngz1JJ6vYZPcz7fy/whCS9gYGPVIrDhAMc1fjJQ7Sy55/Dq/i1Zt0RmFPuSdUtlOtFZuu5acvgz9wC7lu1H0rvkQX/P8bBfiOGefby3vXHPubqVb5CDufPi2mdojf2a+3KEx9eMrcaZ++nfnfbcjOrWZdIf5zOEt/yGlzc+iSagqg9RSSjjHgqQZN7qeONC1rcpxj2oOECrnhEQkYdoq0N9yqoP/cjgA3O8ydHn8iuN9pB1fW313bEp3c7XVt3EZq6wU78suBmdr2/r+qv/6O6xo5tx8mq8+oAuYiUGx3pb64E8l/aq/67r8n7hrb76pmysrNGXU18JlGG99cUXYh7lB5+IDRnixJ7+6G9tq+/Igxvme5y1T37Ry8V69YlX4na+1lU5WmWwafw1nmrPddVX8mJcPc/mbMq2+phX1nyJnd5nHF8ZF//UoPpEzPjtfkAWW8ior+ZYP2z1hbiMn3qgTxn04EvNVa3BVO3PzRHyxDNVH/zhK51+ImfumMNn8coc99VP46kt67VJiw/qV3eNw7VTNWDenE7t96qPvGNX2+h1vRjVJn19pUZi0boQs5draiuGTtnAN+3TmgP1jPLlXG2RE4vGi+///Oc/f8dAfVjjPL7P1Qt58VjtGVsfcw9gm3yh3xyeY5+15gU/rc0UHqsd7vUDbFUf+32VxQ51Njb6ynPPxRy69cd59Oiv5yt5JnYu5j0zzAd6XE87hbcq4722yJP755xzxPyIN1riY9z4/+///b+/x2o9iEs/iAu75scWHco8YhvCWwiv4KCQgJgiCxzGAADA8WBBBpArA0joA3AOATcla5QZgYR5QV0fNsqiy/WCVuC5mZSlxW98qWPeu97+Kd3K1BY/2ZTqd1PiN3LE4jxj3JsH5okDGXVyjw/IohPfjQ1Z+srqu/OO26KD/GuPQxT73Z65VN4+Lw2sZxydjNP3ZQI/0eehyDj+Ka8ftWUe+/hifPS5Z13Vxxh9ZJnDXvW96uWeOX1hLb4qw5xxKYtucodu5tGvvLF66Bmr87310K/jNXfVPvaY05+5PI8wXe2IA321r37skXf7rF2zd/VbPPFwqHisPnFfa00NK3aYJyfUoNZe3XO1tz5icS5Hc/XBN/cRumtc+MlF/Fzu+R6vfX0zrlr7Xgd1s9b8dgybE2RYr5/aq622zYu4VWffo8pTH/RgCxv2q3/VTr0Xb92GOpwHL6yjFtgQr/owyle1wz2y+MQ9+RI/9MUjelyHrLlwbKpFFr9Gl2tO4fJc++bFPJA/YzuFR9chTw5GdvWXVlyJI+WZQwfxKu8cLTgn387ZUlfW9DzjFzJgznX66py1Fhsdb9qoLbbIC2u4zjlHiJ31+oPefvYxpl9ihbxgRz+4V4c5MgZlHrEN4Z0gvBSzA8cDAjCwaT3IauHdUPVgYp3gqbLcAyLsuEEYQ5axLmu/yrvezYgeN7rytXVD1rF6X3XXce97LG4w/e/z5IMx1xOb/e47MnV9z4O+a0udtqN6oE97XT/ydZMzX+OvvjKnfe3Zn/Kn66Nf47Nf/VM3bbdf57jnoGXt6CAa2UGfOrru3veQU7631h055sgltVau2r80z+q0Bd89Z9Stxtf7yDN2zt4d4UkfRm3FDvM1B6N+3xtVZ69H74u9uqbez9WnylZd7smKaec9Y+pa7jnrau7r/KgO1m6UX/TUPdlzWnVzP5cXfTeeka/Y8MGPb/rXbdlXp31zrY0RPtHJfmXNyAd19db4yD06eg3Qpe/4AbnpOqb66Ot167H1tfrj+Dn2R3lRT227D72P7ClcjHClfvxnrX11M0Y+yKFztSWvnm/skVN5rr6Nas28Nas2vK/rGet16v1+jrC+1hV5xjz70NnraB6mfOg+KfdobQhvIbwAB4BaxBFwAI/zffMwPhrrAHU9rUCjdbzrYINxWLDJ8KmDD/1uRu6rLnXaas/+nG7lbEexVH/6fN9Yta8vxmSLDuz1PCg/FV+XRwe61Gcfuapfu7Z1vq7VPmu57E/5gww66zz61M9894/DmjEOJ9ZW+9q15XAGF8rVh+HITrXLfdXd+8amrVGLbS7m0AWWlKv20W1ua6s/59pGd/Udm+hV36jf1+iT/tL2sd6vsqN7fJirdfWR+xrHqdp32Uvrw3q/hloTYlJvjWM0VuPvuT81V+swym8f6zmturmfy0v3feRrHav+dVv21Wmftvo50lHHqr2qY3RvPljDmdAJGfOSL+65RnpGY/jU5UexzeFyqf2ag+4Pdkd4RG7kU81310VMzPdx+n1O3bQjecfIgdwAHfSdO/UMHdV6NKYu2h5br1Pv4w9j6uj6R3nva8yDOsCanMKPH/X5otyjtSG8/z954SCpRaaQ9AGGRe3A4S0NcDlP20kzYx2gVV6g1Q2HzaqXjcZhoEzfEGw+fPUrQNXf77Xn+Jxu5Wx7LGz26k+f7xur9vGXtZUoaYe251ffzUOV5b7njbFes+of+j3Eui71Ie+c9nt/yh/kam7oV/v2tWEdaclJzZU2R63Et8YysoM+13fdvd9jdV1tOQjFncTX+Wr/0jyr0xbd5swx8lzj22Lvdvxpa6pdUuvqY835XO2rLPYvqY97Fp3swarLPemX+2prap/2XNf89LlaO/NbSRw+VRz3nFbd3M/lxdhokccfH+Tqwgb5p88527GlnK067dNWP9EhCVQGne6RnhNlRm2Nb+SbtaRu5K3mcqSvjuET+utYj20Ol+fYH/mPbXXgS8cj890nxmq+q//ci6s+PppTN+1I3jHyik3867Ul78SmjurbHN7UX9u6nvFep96vGEG+4wt5rmqjrzEPypBD9OAL8bk/nH/U9pCE1zcWiyaIAXI9MAAJQEYOQFD4Chw3qgcZejrYWIvefshqm5Y12kEn+gCaMtz7APIAsq8MvnG56RzvbY99ie6qg/hrnvAV/5Vhrh6ixF1zRh8Z5fEZHeadjebmchOSV+Y9yKZiRI54kEM/ctiu9mstrJ/y2MAXxlnffe25078pf9BX84vOnp/qH3kzN/gAJuybr9qSd30lhl6Hirka9yi2Xqcea7Vb77FJDfXDuWqPuVqXpXlGTn21FQfUm3Hwgg8Vd+TVPUV9mK840CfqjY7R3lVGvfTVWf3hfqrWvQbqYk3N+Vztka1YsD5TOdK/UX3ELWu5sE191EWusOU8MdfcqduWHFYMUB/3cK8DfXWZX2tAv9YR+33/aNN2Ki/OG6t7FFvkROwQO31jp48P9Gvt1Edr7h3TT20QO36bg5EPU/lSp23FCHZY1/0y//juOlp86GN1nhqbe8eNreZD3Il/+66Zsu+8rXkxT7TEYn6wyYXPFY/dJ2RO4UJcGbt+44e2qD96sI8ufdLXUcs+IP/WVZnqC3PgCZ+Zn8ObOmxHsZHvWnP6xsY65txT9Puew+c675pax55jYtCnPbWHI7w+2ACpF4AAmICtFlfwUnwAxoWshyWyAIUxdCFXgcm8D2fm67pqh82mDta7KT2MGGO9tgEvtqo+fOugrja4r7H74F6iu+rBBhsF+/jEvX7gr3lgjIs+F3nofX1Cp+vqRmbeOVoPA/JQfar32ME3LuqHPnRzP6pFrR96PahGvhqzdbFmU/6QY+PCR+2jB/34xLz+MabOEQ5qnNybG9azDn3VDuPo1K79Hlv3Ax3GKk66bfv4iR/2abs9xtbk+ZRtsUbcxIMP5hV7xESfCwxwKauv1SfkiMU5W/RYE2xgy7naTtXanOuvPvYa0NdOr32XxS560H0qR8iN6sM+Eju0fV9hz3lt9LOxxs5cjb/uYXKMr1zksu5HdJyqQdVZ7Xl/Ki9TexRfrQWx1fMLvdZBf7Vly7y518bIT+JUjroSuzpO5UsZWtbgI5frtVXJCs8LbPUasa7Wouque1TdNTZ8Rt58oKvjUn1T9p2vLTrMC/nDZy7xNsKj8sSOLnPAeNVd74nJ/YRO4mC+22Lc2Or60b1Y7nkmJnRgD33YwzfukT2Ft26nx1brhD51qV//sY8s+oideS7qz6VvzI/WIIsOcwy+6NdrCks9hnvuH47w3nMxLvGNjcDBc4mOJWvZzHsA/pJYIzP+fxkmL8lLMHA/GIDg3PJMvrX9YHFbLMIjfPEwt5B9yK/9R21DeMt/tPZoRQSYvF3yxgZAX8N/3vxuebi+Royxse0Beu/55CB/jZfFJXlgb+3hwbIk1lvKkOdrn5lg6pq15CzmC6Lta+dTu7avbT/2rnNOszf4IsxPQcgxGHPs0XMewvvghJcDlYNbcF4TkP45BZuQ7Gvaiu7rHGbJa/IaDOwDA5zDEJNbvazd2n5wfB0cQ3D5aYM/c6DO9PfwzA/hfWDCmw1/nQ2fvCavwUAwEAwEA8HAvjAQwhvCmy+1wUAwEAwEA8FAMBAM7BoDIbwB+K4Bnjf0fb2hp56pZzAQDAQDwcAaDITwhvCG8AYDwUAwEAwEA8FAMLBrDITwBuC7Bviat8CsydeDYCAYCAaCgWBgXxgI4Q3hDeENBoKBYCAYCAaCgWBg1xgI4Q3Adw3wvKHv6w099Uw9g4FgIBgIBtZgIIQ3hDeENxgIBoKBYCAYCAaCgV1jIIQ3AN81wNe8BWZNvh4EA8FAMBAMBAP7wkAI7x0R3v/5n/8J+byjeuSw29dhN6qn/0Y8/0Q3/1oh7UguY/vHQmqcGgcD+8ZACO8dEawQ3n1vthym91df/rls/ilN/nlu/inN1/gnuoOD+8NBapKaBAP7x0AIbwjv5BctHv78G9qvfRA8PT098+937/lrG0SLGPnC+Nr5vXd7P378OCT5BAufPn0KHu7oTL73vRL/9k/SUuPtavzqhJcvKTzQUsS/i3gPX3jfv3//QsRoIbvv3r17tVrxsOcrG1/csP9ahBfi+VrEHvxzgX/iDeH9f/uAmlN7CR/1eK2vreLutezVs6/aBhfkoc7v5f4I5z7nFWfJXmqWOP5+Ricnj52TTQivX+R8kE+BAjkOBQ55H2xTsluPcxBBorbWu6W+LQkvLxVzMVOvXgfGyNP37983e/iiq/vS+5ANbEMA+fr5WmSX+onfrfDBS4L5r/ggNuLi+vjx41+5r7JT9+QJYmh9/JN8l4cwkuPRhSw+9jl8rngwL1VOmSliNqp1922EO3JCfliP3S1eBKxBrSux1L64Y+y1XnrMh7bFfM0p/uCrsvfYgiGwOOfnFuf+CDNgH/vkj3xhZ8s8iX9sz+l1P7Gv52Qz/9ikKfV73PqtIrw8FPshwAOrj3Vg1AcKh1Wf36rfH2roHY0ttTeKd+nac+S2JLw8POdi7g8RHhoe2FuQDvTjQ72wMaoHOeahwdwUiTsnl+fKYnsLTNZYvdcX46I2a22xzyBKPozpq7+2o/pLUJRjLT7ap/b0xQDjfV9jtxJu19YWHda5jnvfcVfzgY+VdLtmTYsP3ZfeN5/oxy65XWNrzZpTmNf3NXpfcw1kk5yesrnFud8xQ53MHy9JvgCe8mPNXMf/lA7k2BtT8xl/XJKU2u2ndqsILw9rDqAKBA6fPlbnX+ueg7A/1C61PYr3Up2j9VsSXvRvnYeRz0vGfHifIkFL9DySDPthjghcO565+o98hDhUgjLa19azEuMay5zdKnvNe/08Eu6umc+RbnM8mtvD2Aj/e4grMeyHxKWWy2t5NuHlTZYHWr1IuAeDX4D4ClTfePmKw4PUddzXL3qMo4OLtVzOo597Hsaut60PM2T8M6bz6HNMWfv+KRHZqS8Eo3iJizUQfOOlj5+XxAnhXRIndmoM+IF9xmrOGCNG52nxj/WQeObJD32uahtdrGW8xqsc9TFm19eWvCmj/Z5/+9owJuSNwzF8ET/GYW163PpR/Wa9uhhXhnyIOeJBt/7Q55LYmTPicr1trTvzYtV52poTdFkLZSqWkHUNPuA7/W6n1k89tqwzx7TG5jxrkbFPi52qk/u+DjniG40zh07ybb5qfRyrNqZiqvVDL5gQU/RHV80x/tUcWH9zwnpsOI68uKt+4it2uZyvtqtf3Ft7fCE2/aCtNa++ssb9VvVVO/W+4hn/0WVOjcc4ayzqqHEj75ftKjsXN7qwQY7xWbv4oh3aGif6aw6m5NDJRc6qT8jjl3P09YEx+rTkh5hcy5j5qTa9r/lE1hhYgw/uTTDAPetokWWefq9bna/6Xc+ain10eZ3yVZ/Tjs+A5CV5mcLA2YQXRWxwN7mK2aD1MICccAA67xo2OBcHfJ+nz+HFPPLocD26PQQ4PDgYPKSVofXwo63jyNcx+thABxf6JTZ1Hff6XsdrvKxHX5VdEyeEd2mc6DeGaou86med5zCmXw9b4jKn6Ki2yQV9xmtc6madMTtma26wyZiyPf/2adFln7rjm/qMgzwbB/Pc4x+48QHlGlt9sbY+fJ3HFjL0ux9dFhl8MS510OIPubcW6K35wQZ+EoM+a7fqoT7kvY71OqAbHebCvNU13GO/XjWnzGO/+mjN8VFdyPR1zDE2Gtcuc8aKv32v19iRnYqp2+k+6yctc+TK+ihb80O89nu98aHGxP2pM6naVheYoTbkElsSPGvF2VV9NdcSM/vqqza8d869bN+c2qd1Db44j2/mG3vE6Bzya+NmrXEbB3qX4J51VQ4fyIn+068+stcYc568EyN2rTFYMAesZVz52pov84kudbMOPc6NsKwsOrsd1xMf8/1MQV+tRbVVfcx9SFwwcDkGNiW8deNLSilSPYQsmoeMDyfWcjg4z33V5yHmfO87rl4POse7fO93+66jZa76wlj3j7FL44Twdr96v/rV52rOkevzPCRqjmvMI6JV1/ccoIf56o/3/QE6qknVzYONQ9/1ytuvsoxVv+33+ri216nrVs622rKeYpS19SHsGuWYd6znh5z40EOm++U6yBI+SIyoCw9J5rWjP4z1XKiHtsaCbz1H+ogcl4S96pjyE11dn+uq/4yZc/ynX32ei6nb0Wdt1XZr3FU/sTOVC+aMsfpT8884fXRw3311XoyM9KkbDPbcV92upXVNnXfMtsfZ++fELX61vRT33Ubvd5/ocxkD8sTI5X5xjtac1DHvR/l0rvvRz9gpP6bWdz9GcWHT9WkvJznJYXIoBq5GeOvG9p5Ww32sb/x+0PDm60HmoVMf/FN6HecgrPZ7v9t3HW0/1Bjr/jHWYxqNdTtVj194l8SJ7h6D9pkbzXfbtY8f6OsX4+jqOVBeW7VFh+sY16+p/KO726WvfL3Xl6q/+1Z9QY55x/TFPoSLBx5kTx+0qy3rgZ46pw511rmeH3X3Vh21xR8u7UsUtdN11PiqHuSqT3WO++oje4k9VvOqzEg/+dLHrrfb1W99QZ92nJuKCdlqv/o8sqte5tStXcaqb+jtdvt81cd99aXa11Ydq7q0rT7mvHdNHRvpU67npOt2bY9be5BSY8FmtYsu9CtLX1nt11ZbdQx92lZ/b6s89xB98AfW8Q8f6ktw96nnAB+xUfXiAzog3dqv8953XY7T9th7vH1t92NuPf6hg5iJnRz40lP9yH1IWzBwOQZWEV43aS3AqY3Nw5QDx69WrPPg8GHOpkeHOrs+D0T0cID5JyblbbXlges46+pY73f7rqNdEi9y2l4bJ4R3aZzY6zGQE8b0vc/3GGsfu+TVtb3tOaA+1VaVZ7zW0lpP5R/dU+QJvUviIJbqg/cdR/riPDFjX9+6Lb98U9spG+pUB7p7fniQTWFWX2zBD/LYrHkRX+4Z5afaHgtyEFXlu4/2q/6eP9Yab8W5Omm7XeQY46HOfMXdXEy3xF31E79HuTBuc2KftueBPjqYo76+SLmGeTEy0qccfnUsVt3mtOKxzoMpcEBdJJf6hY0t416Ke/yoL53UXbyMfJrDBRg2ZvJxKp9dl3mm7TXvevpa5LGrjrn16JOQjzChnrSXk53kMDlcRXjZxGxSDiQPbdp6CPuQE2TIc6CxhqsfFMypizXcM+Z6DgPv51oOHAgcBx0PEOwx5gO699HX7VcbU/FW/5S/JE6/8KprriUmCREx4Q95ZZ0x1oce88Si3hqzDwjy5np0S35qDhhjrh7s6qTFB/GBH+hEVl/0zXpIKp1Hf49DWfT3OEYEQH86jsQlPiBTcaEf1RYyxMKlf+quLfjU51F+JBnmE10V71UX9+jDpvLOM4Yu/Se3kiRlaM1x9Zn7WjPs1z5r0F/3MTK1T27wDR+qvXqPTnKBPq5en4o71p2K6Va4w6/uZ8dSjbnjapR/8uL+I3/kkTMKPYzTZx39rq/acj+5lvpX3cjSdy8zT461TT3EHpjocfb+krj1r8e9FPf4qn/qqm33CVliwh57hJiI2TVinXku5JnnXhlb8+deoTU/tB3/1U73g3jrfM9dryv7RLv6Y9v3jeNpQ9yCgXUYWEV4OWg5bDigOSw8MNjo3FMM5uhLAljjoeS4h48HOOPIcXHP5aHNgeeY7dQBySGDDPawgQ/08Qnfer/b72Dq8Vb/+oOfubVxQnjPidMYzQdxmVPqwzgt8fQYex8ZDuO6jr654KHiHPn1gdLjR74+gKxB9aXnnzXUUsywhjwy3mX1G1lkRtjT51on1jGuDfTSFyvEZlWILmgAACAASURBVO3UrR58wyf7o5Z8nMoPdfFhSC64t1Yjffg1sqmP6MDPqT1g3pDrF/ZqbmoNfSATS82tOsDnlE3jYG2tJ74Yq/VDHz7oC7Ey1mO6BHesRSf+YMecYENfq58Vd93Pmi+xpA5adGJLXGlL29YeOXR1PJBX8zHSV21xrz7061utC/fGzjyxaZu6cs/FvbLcnxM3etGBHTFk3IzjZ48TObFQYxJ36PIiNmrYfWIdtpnXtus9s7AhpmjpI2s9qm3u2W81FuQr/rlHThnrfAqf1gW7Yqav9/wxZlr8xRat993f9NcRnuTt2HlbRXhfGzSQCQ8tbXvA2d9D++///u9nxcnhOPV1YA/5uJcYeEgnz8c+KO8Fi1N+cBZUwjsld6/jEEhJpT4ueblS9hFbSLWkXv8l5jlvct6IibTbYeEhCC8HeT0YOBQc2xMY/u3f/m1xnDkYt9sEIwzxwOHri1/HRjIZu24Nkt/l+b13wjv3tbL77xfcToL3hAnOmP7Rwg85fDneU6yJZfleTq6ul6uHILyQO74A+OcgDgn6HIp7Asd//dd/LY7TP+eRkz3l4F5i8WHEgzoPn+sdQPdS70f2w583cBY86pkIsa0/5+J8e+Qv1kvxxEu1ZznPNXLgzzKW6ohczqdgYBkGHoLwppjLipk8JU/BQDAQDAQDwUAwEAz8jYEQ3ol/ojRg+RssyUlyEgwEA8FAMBAMBAOPiIEQ3hDe/CQiGAgGgoFgIBgIBoKBXWMghDcA3zXAH/EtND7n60kwEAwEA8FAMLAtBkJ4Q3hDeIOBYCAYCAaCgWAgGNg1BkJ4A/BdAzxvyNu+ISefyWcwEAwEA8HAI2IghDeEN4Q3GAgGgoFgIBgIBoKBXWMghDcA3zXAH/EtND7n60kwEAwEA8FAMLAtBkJ4Q3hDeIOBYCAYCAaCgWAgGNg1BkJ4A/BdAzxvyNu+ISefyWcwEAwEA8HAI2IghDeEN4Q3GAgGgoFgIBgIBoKBXWPgbgnvt2/fnrke8S1irc/8m+pHi3ltrrIuXxiCgWAgGAgGgoFgYCkGzia8nz59ev7169fkxfxS46fk3r9///zz58/np6enTfRN2fry5ctfsXz9+vX5w4cPf9jFF+KGlKqrrh35+fHjx790owf9b968+a0HfeSNuXfv3v0xrq3aYgtflpJj7CFf9XffiQsZ8l5tbX2Pz9iZurA/ytv3799/14QcuZ449NEYapzMIW8OWFd1Oc4a9dhSo5Ed59PmoA0GgoFgIBgIBh4DA6sIL6QFMgA5gRDQ0odwbEV4ARBEZSmpuwRwxKDfb9++fblnrJJYCDBjzFdbkKfPnz//Mdbn1c24OetrIF5dd9XT71m/NDcStxoPfuC7NpVhvNvaso/Pxk5eyCn6JbHaxzfzhm8SdP1FR335QIcx1JcV5CGzrGeeCx/MHX3muWp+0Id9xvFlyxxE12McjqlT6hQMBAPBwH4wsIrwSgwkb5IUvsxJUh4JJJXw6jcEFLJj31jt20KcTsU8modA1S+T6jqnxaakbck6YrROvkhA9uraKlPHt7zHZ0krMUh4sUHO9bHnDV+RBWPITsXfYyDPnRgbv3GxBrmaT+yx7pwXC/Wl3c8BmVqmlsFAMBAM7AMDZxPeWnhJoCTFOcgDJAJSAmHgHjLB5TiyEh7G1QXR4PJPzchzD0lRpupHh1/okNEHSDmEhfX1cr621SfHtWVs9p23xXd8sN/bPg9hw199JVZjwA/kqw6+VtY46tdRZInT+H0Rqeu9RzcxoI912HXOFhnn9aXK4TNknTlsUoc6X3OOzxJb9ffW+vdx+j1v6NI/5lnbc8U4MtbM/qn6KENsrNVnYiHXU3ZYlys5CAaCgWAgGAgGHgMDVyG8FB8yAumBSEAeJFmQikpAIFDMIcOcayG5kCkuZLggi+hUhnvIDTLoYA1zkheJD8TFdcx74Qc264Ue5lnLuDrsV1nvazzqtkWfcrQQxfond3x2vTa6TXKDPuLQP9agyzn0jGLUj+oDuXS8tsign3yaQ/Uzhj0JN/OSXnRQG2sGacQX46o26j3z2Kxj3uOH69EHucYefiDj2hqX9+YPOcaMQd291QdsYod5/Mcudsx5X5f+v/ZScpFcBAPBQDAQDNwzBq5KeCUsNQGQizoOmWBM8gbJoF9JCwSxyqCvEiL6lZhIHLXb+47bdp8Yd41+2HeNbffDcds+DzHEXiW9ytLW2CFfrK/z3td4GTNHzvdWveYXP6ZkHIcYWytIIzqco2WOutUx73vcjteW9V2n86xnzgsyDcl2vsfvOPLWjDH6SwkvcsRDbiS+U3a0lzYHfDAQDAQDwUAwcP8YuAvCW0mdxLKSltFYJ1SVmPh1UlLJV8kpYgZIIUWsr4DVpiTLfpXhvvuxZJ41xuzXS8il5M7Yq1zXW+Nlbso/11UiyFry4dfSkQxjNTbWoENZ2jqGLn0yDvpVvt/X9X2u2u5z9LXV52qczNGf86PGRV64rPuUnW43/fs/7FKj1CgYCAaCgeNi4NUJL2SiEpBO6iSrkj7A6ddLyKFg7YSoExO+CGILMgOZlMC4vrYjUsQXvvoTgSlC2f2oerkfzdeYsYGvxosv3jOObNdJv8c75Z9rq17IqXadp60y9KvvfpmuJBkfzBH5Is/UCpm6ttqo96zHZh3zfm59j991PQZ84nKellzVvFYf6s9GkJ2yU/Xl/rgHaGqf2gcDwUAw8BgYuIjwSkQlaLXokAx/71nHIRoQOcZYB2Gq5INxxlgPceLivst0/dhijPWQ2y5ffej3EB6IDePYk4j5hZhxY62km/HuR9fNvLqZkzg6hm3t+Cf12q8EjnyZ007M9K/bp09M6Kl/2lfe2iljn3XVd38K4Z/66VMn4yDf+oaOubygH3n8GvnMenEymmetZNt5YzB/jBunP+FABt3iwzXq6C12kO/j6T/GAZc6pU7BQDAQDAQDYGA14YVU+gWVtgJKUtdJFjKSOr/0QpggLvULrISV9VwQH4iJNqp+ZLmUZQ4ypm+O069ESF3oVoYWOcYq8UNWfZVkQf5cW8mkuqufylWSiJykzxxAxLBlPpjXNvbIA7bUp11lRiTRGKveqkPyiE7jq77rC/ljHjl0sc5Y0ccYF/fUFTn9U8622u8+V9uj9bXeEnD0Vt/0mXF0OIdP5FgsmJvug+uQ56p2jCFtDtFgIBgIBoKBYOAxMLCa8N5zgSFMnaBAzvyqd8++x7fH2DipU+oUDAQDwUAwEAw8DgZ2SXghtnyx86swX3zpdxIcoD4OUFOr1CoYCAaCgWAgGAgG1mJgl4SXP2dDev1zNH9mh+xKgNcmK+uy0YKBYCAYCAaCgWAgGHg8DOyS8AaIjwfE1Cw1CwaCgWAgGAgGgoFrYSCEt/zLa9dKcvRmAwcDwUAwEAwEA8FAMHA7DITwhvD+/j8tZCPebiMm98l9MBAMBAPBQDBwPQyE8IbwhvAGA8FAMBAMBAPBQDCwawyE8AbguwZ43pav97ac3Ca3wUAwEAwEA4+CgRDeEN4Q3mAgGAgGgoFgIBgIBnaNgRDeAHzXAH+UN8/4ma8kwUAwEAwEA8HA9TAQwhvCG8IbDAQDwUAwEAwEA8HArjEQwhuA7xrgeVu+3ttycpvcBgPBQDAQDDwKBh6K8PIvpfGvpv348eOZfy74XpLMv+rGv+52L/7EjxxAwUAwEAwEA8FAMBAM/AsDd014IbXfv39/+SeCn56enj9//vz86dOnmxLL7hNEF78Cqn+BKrlILoKBYCAYCAaCgWDgnjBw14QXsvvx48fn9+/fvxDfe/iqe48+3ROg4ksOuGAgGAgGgoFgIBi4NwzcNeG9t2TFn/EG5kWEn5rw047kaJyj5CV5CQaCgWAgGAgGboeBswkvf8L/9evXXxdfPv25QZfhKy1F/vLly+91ECTGvn79+tcY8iMbjPl7WdYrg150Vbv8zrcDizHX2DLG+vr1uNtHbx9zPa1Er/pEPqp9fpJR16Czzi+5r/rJG2u20DtlGx+1aW3nZPFnSqaO89WevKG/jq+59+curKWO1mONrr4GfeCjYof7Dx8+/OE3vy+vWOa+Ygq95BNcgAPi5qcwrNMmOak6kMF2lVE27e0OzeQ+uQ8GgoFg4PEwcDbhpciQn0r0KjGS8CjTiZ+kTzn0OVZJBKSF8Uq0ePhLZtSPTAUeJIKxTjaQgVBoiz5EQj2Qi0pCtV9/n+vYlE9VP3aqvkqY6vrq+9x91V9JkH6Rnzkd586bnyU+E69EfMoOMegvOeJ+SnbpOLlQJ3mu2FqqY0rOnKvTfHSMgXMx5JqKffDIPGMVd+KL3KET/8Uu9WRsLqdTvmf88Q7k1Cw1CwaCgWDgOhjYhPBSHAmHxEhi0AkND3AuSIFFHY11fcraqp+1jtE6Xse8l4j0NdqqxMIx40HHaEzdtOiX1GBDAtrHq866fu5+zv+1ek/ZNZ9b6Ybg8bVcMkdOT9m/t7laA19oeFGj3jUWX3CQJwZfxMwjpJY1YtE8ixnWaKvqvbd8xJ/rHMzJa/IaDAQDwcC2GHgYwgsZlSwAAgmChEFgOG6/thKIvoavd5V8sGZEbvtY90n96oP8ogs5CE9fX31bcq/+7v9Ir19bjYsvi/ULOl8ZIVf4qIxfG6sv5tPcE4vy//u///vHer+CSvaQrbrqvXrxvY7Xe0kx9iDJxMC9X0mRhTjit3PMo9Mv4PpCi03jZQ35dB3zflmtPvR7yS3rnDMWc8R4r4l9bLrOPDKGbXyrfuAjMubVdWm3PQSTz+QzGAgGgoH9Y2ATwssDWyLhVy9JgA/13k49+AWdBKGuq4Si6ncNreN1rI5Xfdwzhy+Ou0771aZjytLWefVAtsyH/kBoXF/XaG9Jq/5qv96rV/KED9TDPrLmXV8gkvgL0WKs+6H/6pbwsQ5ZfcKWa5lDn6TT8dqqd2SzyhmfZFzCrT/qkcwbl/P6hx5kam38mtp1Vvv9Hv3ESk6d6zYZ72PGYf6R6WPMiRvn9FFbafd/KKfGqXEwEAwEA9tj4CLC60OZli9ekg4KJRHhwV8L55pTD37kO2GAlEhiqn70Vf3arWPeV/LjGO1ovNtHro91n9SDbP06aQ76+ikfiKnmRzn195i7XggnMtplvaQO4ggJZr7r0U5tzSct6yBk/Ysj5BZd1h+7Xabq5F691ccuQ18/zYfraEfyfX6UM/O1VKd2JPK+1DmuvupTH+tx9Nh86SC/6KffdWgv7fYHYXKanAYDwUAwsG8MXER4eSBPAUTi0WXmHvzqm3vYQ6jU5Rpa7dYx70fkhzl1QTaUHdkfjSlPq37uK6msRBCfKzFyvWuNSTLmfNWPTB3vfpkDxpWrY9WW81Ot6/SLtn91VIZxdEOAp/Q57prqo3O11a75cB2tctQPQl+/jjo/itV8ndKpblts8FI3+mrtTw+0yRpt+CXcn05oExljAyujlxRwg8ySfOpn2n0f2Klv6hsMBAPBwDoMPBThhQBIkEZEBhD4ZXUEiLk1lchJWEYkpo6NfNI2JKeSlZFOZZe0U/53vfgHUTJX6DYvkLMpPSMf1EXLOkmlRI41/Hkfe8xhB3I40lXH1Ft9rPPeSwqxzZjraOlLNrELGe3zo1jN15RObdtCSKkjrWP1674vTDUW5PHdNeZfv2vO0KnfVUcI77pDzRqlTf6CgWAgGAgGxMBFhBdCp6Le+gDvMhKYSooc4wGvHkmJBAEygy4JAX3Jl7r8raoy6rLt5AcdfllDN31ltQ+h6mNTPklQlO+tOl3f5+f61f+Rr5AqdEimJFzISsCYQ8a+xBXfva9+WEd9ltyhW8KIPPljjJpU36queq9e5Ot4vxcb2nKddTGn+I9d/XC+5kzdynSd5k85W+X1xVa8YlcsQnC1WXHoGHlH3jjMq/PoQQcy/gxFGf1JmwM8GAgGgoFgIBg4DwNnE14exj7waUckoctIpPzKxTqJjg/1OiYJrXa8ryQCO309NiALIyBI8tRFC5mBUNQ13T52+ljVoU+SnlFOKlGU1Ix8PDWmfmwTN7JVL+P4yjgEqhI17hlTP3KSRdaN8oaMNvWZsRq79vRjjpwhV+2ii7qYQ/2jrTlHpvpjrJBO60pO9MP5ig/0dZ3YMUbXVB+qPubr1fNZ8z3KJ7r0FZs9V8RSdXCPv9Wf3J93wCVfyVcwEAwEA8EAGDib8AY4Ac4IA7wwQObqi8NILmPBTzAQDAQDwUAwEAy8NgZCeP+xb9D5RfJawOJLJSSXL6n5GrlvLF0LQ9Eb3AQDwUAwEAxcGwMhvCG8F/3JXELtb2avDdjoz6EYDAQDwUAwEAwEA+diIIR354T3XEBEPodIMBAMBAPBQDAQDOwNAyG8IbwXfeHd24ZIPDnkg4FgIBgIBoKB/WEghDeEN4Q3GAgGgoFgIBgIBoKBXWMghDcA3zXA85a+v7f01DQ1DQaCgWAgGDgXAyG8IbwhvMFAMBAMBAPBQDAQDOwaAyG8AfiuAX7uG2Dk89UgGAgGgoFgIBjYHwZCeEN4Q3iDgWAgGAgGgoFgIBjYNQZCeAPwXQM8b+n7e0tPTVPTYCAYCAaCgXMxEMIbwhvCGwwEA8FAMBAMBAPBwK4xEMIbgO8a4Oe+AUY+Xw2CgWAgGAgGgoH9YSCEN4Q3hDcYCAaCgWAgGAgGgoFdYyCENwDfNcDzlr6/t/TUNDUNBoKBYCAYOBcDhyK8nz9/fn7//v1qgvfhw4fnT58+rV5/bnEinw0dDAQDwUAwEAwEA8HA5RhYTXh//Pjx/OvXr2faXoinp6eXOebfvn37Ml/HGP/27dvvdVNz2pjS8+XLl986ug8QW9b1682bN7/XQGC1Qfvu3bvfc+jra+mzRlvIEwfjP3/+fCYO52ixhY/qgXCfM48sBBvd6MBW9X/JfLWX+8s3THKYHAYDwUAwEAwEA4+HgdWEFyIr2auFZ1yCJwGUfEp+a7/eo6f30aUe7UAi5760qsc1vcWXSlLRSb8SSmyjp6+1//379xdCS1/SXuUhuMigE3KM/ur33DzkmjWsRQe66ovC3Lx+pn28jZmapWbBQDAQDAQDwcB2GFhNeCF2kLdOCiFkjktwIZNctXASt1NzyHfCi87RV+Wqm/s5wvvx48c/9KC32+qxVRuQUOaNkTn8qnFWQs08c9X3ufmvX7/+oU9Src25+epv7rfbNMllchkMBAPBQDAQDDwWBlYTXkgtBAwC5xdYWkgdc5XY9X4Fyak55Kp++hDl+hW16qr3c4QXPZJu1/UvsKcIL34z71paCKg6tV99hWS7Zm4efchiRxuSbHXOzbsu7WNtytQr9QoGgoFgIBgIBrbFwGrCC7HjSyMtpIx7SS5j9UsnRYOccfl1shby1FwlvBA9CaXrWSvhdozWnxDwMwBkqh7m0dN10a8EkzWuhwzX3+COCC9j6hwRWsew7z2tfjtmH7+rP4wz5pq5efWk3XbTJJ/JZzAQDAQDwUAw8FgYWE14JbcQWy6IXiViIxKKXCVsFSxTc5WEYrMSZgliHas6670EFSLMOHolp8pVW47ZaouvtIypz3nH1Km8OWHesXo/NY/MHKGdm0dHruQgGAgGgoFgIBgIBo6OgVWEF5IGQSV5Ej/7kropEoq8pLAnfzQnCYVAM9/XnNOvBBG93Q8I9SkbdQ1y6Kv2yYE6zUMltMTgmrl59FZ/6ZNTxtQ5N199y30Ou2AgGAgGgoFgIBg4KgZWEV7Inl9waf3aSxKZq30JoAlG3jHb0ZxjkMgRuXT+nBaC6Bdafp5Q/eT/gsB8/d+Odd34y+90GUcO+Urs+fmDP3tQn3lijf9XBu7n5pFBny8S1SZrl8wjkys5CAaCgWAgGAgGgoGjY2AV4YX4+ZWxJ5A5SZpfMSsp9CvqqbmqE10Qy0ocnZ8aZ14/JIeQZn6Hqy/+B2BTBBh5CKfy+lsJMfpOEWDmiBcf0IN8jWNu3v/IDV/RYUzGPzevXNocdMFAMBAMBAPBQDBwZAycTXgloJDNnji/xFYiCuGj71UJ36k5daMTomffVgIqIXXcFjLof3CGbe5Z4zwtvugDNvx9L3PIMqbfyEmO1YG8NpivZBgZSCqkFh2QXWJx7ZJ5ZPgqzFp0kHsJvHrm5pVLm4MuGAgGgoFgIBgIBo6KgbMJ71ETlbhzSAQDwUAwEAwEA8FAMPCYGAjhze9c//jqnI38mBs5dUvdgoFgIBgIBoKBaQyE8IbwhvAGA8FAMBAMBAPBQDCwawyE8AbguwZ43nan33aTm+QmGAgGgoFg4CgYCOEN4Q3hDQaCgWAgGAgGgoFgYNcYCOENwHcN8KO8uSbOfKUJBoKBYCAYCAamMRDCG8IbwhsMBAPBQDAQDAQDwcCuMRDCG4DvGuB5251+201ukptgIBgIBoKBo2AghDeEN4Q3GAgGgoFgIBgIBoKBXWMghDcA3zXAj/LmmjjzlSYYCAaCgWAgGJjGQAhvCG8IbzAQDAQDwUAwEAwEA7vGQAhvAL5rgOdtd/ptN7lJboKBYCAYCAaOgoEQ3hDevwjv27dvn3/+/Pn87du35zdv3jx//fr1L5mjbJDEmYdBMBAMBAPBQDDw+BgI4Q3h/YvMfv78+YXo0v769ev5w4cPf8lk8z/+5k8NU8NgIBgIBoKBo2AghDeEN2Q2GAgGgoFgIBgIBoKBXWPg6oT3/fv3L18Jaff6FrHHGI0pX3fz9r/XfZu4gu1gIBgIBo6DgVWEl9948qfuqevTp08v5Ba5Hz9+PEOevnz5sinhRR+/MV0CVmTxdQsf0PP09PTb7tYx8ttZbJhD4nv37t3Lb2oZ535JzJfKkFtsff/+/eXnDefqI0f4y8VPI1xvLYgT/cQpqaa/RY343TH6aw61n/Y4h1tqnVoHA8FAMBAMiIFVhBcyA5FFiV8CIX70Jbjea2gpOVV+rkXfOYQG+UpU5/SP5iX6xoqMeeB+ixghf5A1rmqHWCtxHPm31Rh5koRS37V5k9x2vyDB6GUcckreGCOXWxB6/CV/kPVuO/0cfsFAMBAMBAPBwPEwsIrwQr4kLNx30leJ2r2ACkJ1j371/JBXCCBkrf7fEcgzV5e/5z6kueedGlS8XMN/cjeyfQ1b0Xm8QzM1T82DgWAgGHg8DKwivLXQkLOpP0P75Q7So4xjEDu/ADJfddZ7yBHzXhAm75GzL4lyTnvIYIt5ZZEZfbXUN+RYhwyy6IJsel/9c02d02f0OK9/de3oXsJLi05a5Drh9ecGyNTrP//zP1++bjKmfv1BV825X1Odl2BX3cz5tde1+uKXaPVor7bIfPz48bcvfKWuxJ0cqRefnUMnaxnj3jwiW/X3e/QZB75X2102/cc7sFKz1CwYCAaCgWBgDQYuJryQihF5ZFzyAtGir4OQGIgL6yAo9CV2ytCyHqLDPXLqYJ3jzNGXNLlOWfvIO4bsFHHqvrBG39BRY2VuFKO+Is9aLvQyjj+9z5gXc8YGcdNn7GgLWcig/f41k3HsVZ01rv71GJvY4ecF/fevEEZsMY4+88gaf44gwdRebclznceOeUAO3ejifspvSDK2jPMUwUbWGnXb1a/c/wtzyUVyEQwEA8FAMLB3DFxEeCEulciZLIhLJZSQJEkc5IY1khJ1uLa26JHw1XF0V/3cV4I3sl/1II9M1ek9cvqGr9VOJY0jG8bI+iqLnmp/Ki58QFY95EZiy5rqc9XPutpHjr4xmXNaxvAPvc4jb8x9ruvGt+oH9/qrvtpKUiGsENVKfqsc9/rpeO8zXuNUrrY1z9V2lcl9DvZgIBgIBoKBYOBYGLiI8EKOKsEQPIxBTLwqQWJNJUi9rw5bZNGDnGPor31kTvU7SWK95E+dtujSX+79GtnJ16kYWV+Jcu9ra9RiB7vOsbaSXscZ8z9ik9j55ZM1xKysvhsz5JP1rOOeWGiRd621s2Wc+Zof5au/2rRFLzqwVb++Oo9PfsnWVp1jzD4tfeOo49ybB/XYVmz0Nekf68BLvVPvYCAYCAaOiYGLCC+krhI7QXSKlCAveUK+99VRWwkb5NMvwhJR5LA31Xet+lxvv7fGhI+VKNGvxO5UjMjVtb3fbdY+/lY7zEFIuWre/KkBfjBX7THHuHrNAa1jxAnRRLbrRZ9yvcW3Kt/z0uXpYwd7/f+aYC3QAVnXT3X0PuOn8o4dSK/rtc14Hcv9MQ+71D11DwaCgWDguBi4iPB2EiaQOgGr/XqPfO+rAxIksZIY0UKCWKNcJ0W93wkZxLATSnXRKt9lOjHvftd+J2W1r3/EUu16D2Hrtl1jPpCtP0lwra3ykEi+sEqAGVfGnEJC/brLnOOsoc8csesv8n5ZZp77TmS1YUvOyQF6HKPVT2xwER9y+uMXW/u0zHdSiy79rvq5Rye5UkefT/+4h19qn9oHA8FAMHAcDKwmvBA8yAdXJVKARyLjvGRJUtL7yDkm+CB9rqf1C6akSPJEvxJE5x2jZazrrWPO0UrO6hj3xmusUzE67nr7xMAYdtHlfG8hZ8hKOJ3nK2X1GZJZ88N9nTd/tBLFbrfnRlsQSuOllWBKnLEFmebSh+6vumitO/J1HL9O+Wku/EJLi71O9tGrbCXf1NLxHnv1I/fHOfBS69Q6GAgGgoFjYmA14Q1gbgcYSLRE1jr4NdT+khZymC+ft6vjkhpFJvUJBoKBYCAYCAYux0AIb/lfgj0KoPxK7FdxSKtjczEgBznmi2z9Ijy3LvOXb7bkMDkMBoKBYCAYCAZug4EQ3gckvBBc/rzvn+v5Mz/9/pOB0aaC5CLvT0JGMhm7zWZM3pP3YCAYCAaCgWDgOhgI4X1AwpvNcJ3NkLwmr8FAMBAMBAPBwD4xEMIbwvvHf0iWjb7PjZ66pq7BQDAQDAQDR8ZACG8IbwhvMBAMBAPBQDAQDAQDu8ZACG8AvmuAH/ltNrHna04wEAwEA8FAMPD/MBDCG8IbwhsMBAPBZ0eQsgAAIABJREFUQDAQDAQDwcCuMRDCG4DvGuB5s83XjWAgGAgGgoFgIBgI4Q3hDeENBoKBYCAYCAaCgWBg1xgI4Q3Adw3wvNXnrT4YCAaCgWAgGAgGQnhDeEN4g4FgIBgIBoKBYCAY2DUGQngD8F0DPG/1easPBoKBYCAYCAaCgRDeEN4Q3mAgGAgGgoFgIBgIBnaNgd0R3rdv3z7/+vXr5Xp6etp18fLGmjfWYCAYCAaCgWAgGAgG5jGwO8Jr0T99+vS8B8L748eP52/fvoW45807GAgGgoFgIBgIBoKBlRhYTXghYX5JtR0RMwgb5FMiemmLLuyNbFXdX758OWnz3bt3v/1XlrGfP3++jOu3sY1afKny2mct8up1nPbr16+/7aoT+c+fP//lr/rxq+oY3WMLfUtzfcpv5v7jP/7jd2wjexmbf5tMjpKjYCAYCAaCgWDgPjCwmvD604H379//JmMQLshbLS5jVabOrb2H3J0idszj35x+SGb3FyL98ePHl7XYoP/mzZuXGIyFPuuY5x6CWAkr9yOyiz/Iq0f/0MPYhw8f/vAZcrwkDvV8//79ZF6Uo8UWNqt+/MBvfKwydV3u72Pjpg6pQzAQDAQDwUAwsBwDqwkvPxeAMNVkQ2w7mavzW91DNk+R6EriTtmU0CoD2as/g2Defo8NUsw8a5GB9GKXa+7rc8+RJFhb+nNui119mltrPMphu5P0LqNs2uUbLLlKroKBYCAYCAaCgdtjYDXh7WSRYkL2IHOQJy7uO/mDrDKuXCdZFRSsVZa22uDeOUmeBK1/ta06670xQDj5mnqKcKqbturwHl+JhXZKRln8VgbbrOPrrF9WafHNnx30HNY5ZPQbOeb4wowN8jD1cwjjwSfWjOqgDDqsW/2SzVpsO0eLLuOci0O5tLc/CFKD1CAYCAaCgWBgzxg4m/BKgiSbtBKySnhJGiSqEiAIUSVWrJWs9SQjW/V6jzz3rGUN+p2b6qOr61e2xtF/UlDXGDdtHfceUoiuGp9zva02ucc/cqcc5Nu8dbuMQ3KxB6EkdmW5R5dz3E/5o1596UQWX5Rxjq/ayOur8+aN2jBvTU/FYaxpc8AGA8FAMBAMBAPBwLUxcDbh1SGIDYTHPq0ESEIE4ZL80NKv8pU81fGRrPMQONbZh+xVUse9BBAZSGCddx0tcpJlZPDPr6xVjntj6zErR8ysP6VD2Zo77GHbn0QoU9sqj/4aX5Wr5JdxiKrxVTnujYd78o0NiHKVqzKM42v1Bb+7fvoQ3arH+7rWsbQ55IKBYCAYCAaCgWDg2hhYRXglQhJbnZQ00mcOgqNMJ2PogLy5trZdts6xRhLNOLK1zzy665qp+0p4IXOQzikyacxTuvHDmKZ06MeI+DHmOnJGLvmZA+NVvsqpz7bnrcanjK3x2Gctl33aLsNY9WW0po6diqPayX0OumAgGAgGgoFgIBi4JgZWEV6IVCerkiPJJ22VGRHVTrAMtMs63kk04xAwSbXzys+1nRD6J/v+pRM9xkfb9RKrf/Yf/d8Punwljc5VIkv8fCXVVpU/RcrJp6QZvT0+bdEaj2PEjB3/DxUjGcaqL/gIKVcHLT5A1rk/FUddk/sccsFAMBAMBAPBQDBwTQysIryV1OAcxKoSNsckPvQrGWO89nuAfQ7iBEHrJJox5lzPPGvt41edd9wWktrnIXBVh7ISWUmo4xBFSGj9KQQ6uOqY8v1nAfTJRyWS3NffxaLfPrL4LMmHoBI3+rFZCe+pnzQYj3pYj3yNRZkp37GLr9qXRJujU3GoM20OuGAgGAgGgoFgIBi4NgbOJrySM8hMvSpxwmlIYyVDkiPHnJcc1UAlTupXN7a5lNUXx+xL+rDhnGts/aKJjSoDmWSM1i+9klrGIYRVB33GJX1VtpNp1vFVFPl6QVQltMhAPJnXB+LADrohyOpgzFiNXTlktVG/2uq7flcfq45//vOfLzbRYX6qXfVgv+oyD3NxuD5tDrlgIBgIBoKBYCAYuDYGzia813Yo+gP6YCAYCAaCgWAgGAgGgoEtMXAVwusXWr/MbulwdGUDBAPBQDAQDAQDwUAwEAycg4GrEF7+zF3/VH6OQ5ENgIOBYCAYCAaCgWAgGAgGtsTAVQjvlg5GVwAfDAQDwUAwEAwEA8FAMHAJBkJ4/xEAXQKgrA1+goFgIBgIBoKBYODeMRDCG8L7+/86ce9gjX85UIOBYCAYCAaCgWBgDQZCeEN4Q3iDgWAgGAgGgoFgIBjYNQZCeAPwXQN8zVtg1uTrQTAQDAQDwUAwsC8MhPCG8IbwBgPBQDAQDAQDwUAwsGsMhPAG4LsGeN7Q9/WGnnqmnsFAMBAMBANrMBDCG8IbwhsMBAPBQDAQDAQDwcCuMRDCG4DvGuBr3gKzJl8PgoFgIBgIBoKBfWEghDeEN4Q3GAgGgoFgIBgIBoKBXWMghDcA3zXA84a+rzf01DP1DAaCgWAgGFiDgRDeEN67JbwfP358/vXr1/O7d+9ezccfP348f/v2bVN7nz9/foljzQbNmhzswUAwEAwEA8HA5RhYTXghBpARrrdv374QhDr25cuXlznGXqtQECN9wj52Gfv58+dvX56enl7utyY1PcZqt89do//hw4dn809LnFN2lviGPnJpHr9+/Tqpr9vRj/fv3y9e03WAKWqEjmvXStufPn16wQr5cezSFl3kEfI+p2tJXeZ0ZP7yQzE5TA6DgWAgGNgfBlYTXggJD/JKaiBHkAaBwr2EybFrt3xN6yQbwlQJBzKvQaIkjdeO2VpgD1sSt1N253yT4FI/6qzukc6Ogzdv3vyFjdG6U2PEIPGkdhVn1K7i7JSec+aI2Ze3c9Ypi08dV2Dt1MuHa23n6qJc2v0dxqlpahoMBAPBwPUwsJrwQkAgOhaHB31/sI/GlL9W20kHhK371WWu5UvP0WvZgTR14tVtb+WbZLsSUmx1EtztX9LnheYahPcSn1gL1ubyPmdjq7rM2cn89Q7V5Da5DQaCgWDg/jCwmvBW0jhFbhiHEPkn7v61F3KADFf/KgtJdQ451i75+qZffGXki10nu4BQGeb4uQNXlXOt9tHj10bW4wf+OD9FviQvrDUHfPGrGwG7ztF2XfT9SUb3s+phzi+h5IsY6ny/1zfG65/S//u///u3Pb/y4qOx1jzUuJzXf/oSb+6rT8YrSTaXrsUn5sQHsfmF+fv37799UW+NTV9ZyxrWmrfqb60Duap5Zi069Qs7xq3v5kbb6EOuXtUX5Gof39TFuHqsy5SvyqW9v8M0NUlNgoFgIBi4XwysJrySkRHpoOA8uHmgc0EQeahzLxhYL7FgjDkJj8RAgst4Xeu8umqLbCUdEqUuIwliHPJS9esbRIgLklXnWStZ017V773kRXIFIcU343JeH42LFh3oxhbkBz/wizH111Y/tMUcPmOvynmvbfvo1i7+sE6Shwzz9WchrlMPrWO0rGcNfqOHvvpHa5g3NskeeWI99UGX+qusY7U1b/prfc2NdUA365jXdveN2jOvfubJq2sdp8XH6idj6K1j3Td8osbq0X73Vcwol/Z+D9XUJrUJBoKBYOD+MLCa8EI6eDj7gO4PZB7syDgO2fHBzz1zFRB8TZN0QCgkR8gwzrzy3KvLMVtknUNuRE6qDOskeNzjr7Gp0xgrAexz9mvrOscgSVX3KA58l2DhuzlRx6iFHKGLC/IkGcM+OkZr9A1Z7NV8I886CSMyEL9TetBX52ucjLPeWLRd1yDvfNXDfa/XKdmRvPbUa7/ad462+k5eKiHFl54r11I7sedY97339UX53u+YUS7t/R2mqUlqEgwEA8HA/WJgFeHtD+URMePBz8Pd4kPG7EvOnKNFHiLRdde5Kj91XwkFZAGyol3XVBnGqk3vaZXvY/QhicQNOeJStrauq2OVTI0IUh1DtvtedXFPziqpZT3kkthZO0XO9E3/6VfdrJXkcj/lh3r6+honevFLHaM1PVb8Zg31Y457/euyjttip8prz3n7+sxLDpgkXnRzOSeGeCninlzTqqu22Kx2meu+9L6+qKf3Ga/+KJf2fg/V1Ca1CQaCgWDg/jCwivD2hzb9SroodH9IMy+JgBSwRkD4VZW2EzgJgGtdM9V23/zzdf0622W0gU7//O7PDBhzHv/0FR3IOjfyZzRX8wJpllS6ntxAvuiPyLpytj0WyBg6udSjbG2rb+QIW5XIGScxniJ55gt9VX+Nk/Fa89Ea5IkFWTCAP7T40WOcy0uXr7Gi374+Ex+1sN99J4/Mkyd9rLF6j0wI7/0dctYnbWoTDAQDwcBxMbCK8FZSBngkRxIGCYXAct4+BKKSMQiH/bqWddiCgLgWElT7jtvy53302aeF/FUigkzt1580IM961kAAuSqR0T/nIED4U8mitrteZCqZMhZa1qiblj45wRfyQB/Cpaw2ug5sEB92WE9/RNK6b8RIzOqt9kfrqxy28A0iiz89TmTRXfW4hjnWEKfztPpC7N03asfYVGzE73r091h7nvEFGX2BUNtnTPyiE5uMjS78Jg5k8AGZ7kvv65t67aufcfwTE46nHdcgeUlegoFgIBgIBkYYOJvwQqJ4ANeHsKSLMR76XJVQ0meujqmDVrKrg5AGxmklJ65F1nvlbf1y2HVWff/85z9/+4/frIXgsAYSRR892GDMcQkJrXO0EhJs6Ic61Gt86Ecf48qSG+XQoU/Mo7uuQdZ1tYVEdR3EgD7GO1liTnl9g7DiG2uYRz/rkDP2arPeY5+15gMd6kJO3YypW0xoj7XYYp5LHegWA/pKjpB1bfWFtdjhwi5zPVZ10zKv/+qrvqibsan8K6Pf2MPH7kvvV9+oM/Pd11p/7aTNYR4MBAPBQDAQDJyHgbMJbxJ8XoIfOV+QtjmS98jxneP73Nfdc3RF9jh7KLVOrYOBYCAYuA8MhPBO/Hn6NQHqF8zXtHnKluTO9pTsNef8CnxNG6d0Y5+fGPClOMT/Pg6sU/XKXGoUDAQDwUAwMIWBEN47ILxTxbnVuD9H6D+FuJU/t7Ir4fanFLfyI3ZzgAcDwUAwEAwEA5dhIIQ3hHf4u+BsrMs2VvKX/AUDwUAwEAwEA/eDgRDeEN4Q3mAgGAgGgoFgIBgIBnaNgRDeAHzXAM/b9f28XacWqUUwEAwEA8HArTAQwhvCG8IbDAQDwUAwEAwEA8HArjEQwhuA7xrgt3qTjN18xQgGgoFgIBgIBu4HAyG8IbwhvMFAMBAMBAPBQDAQDOwaAyG8AfiuAZ636/t5u04tUotgIBgIBoKBW2EghDeEN4Q3GAgGgoFgIBgIBoKBXWMghDcA3zXAb/UmGbv5ihEMBAPBQDAQDNwPBkJ4Q3hDeIOBYCAYCAaCgWAgGNg1BkJ4A/BdAzxv1/fzdp1apBbBQDAQDAQDt8JACG8IbwhvMBAMBAPBQDAQDAQDu8ZACG8AvmuA3+pNMnbzFSMYCAaCgWAgGLgfDITwhvCG8AYDwUAwEAwEA8FAMLBrDITwBuC7Bnjeru/n7Tq1SC2CgWAgGAgGboWBEN4Q3hDeYCAYCAaCgWAgGAgGdo2BEN4AfNcAv9WbZOzmK0YwEAwEA8FAMHA/GAjhDeEN4Q0GgoFgIBgIBoKBYGDXGAjhDcB3DfC8Xd/P23VqkVoEA8FAMBAM3AoDIbwhvCG8wUAwEAwEA8FAMBAM7BoDIbwB+K4Bfqs3ydjNV4xgIBgIBoKBYOB+MBDCG8IbwhsMBAPBQDAQDAQDwcCuMRDCG4DvGuB5u76ft+vUIrUIBoKBYCAYuBUGQnhDeEN4g4FgIBgIBoKBYCAY2DUGQngD8F0D/FZvkrGbrxjBQDAQDAQDwcD9YCCEN4Q3hDcYCAaCgWAgGAgGgoFdYyCENwDfNcDzdn0/b9epRWoRDAQDwUAwcCsMhPCG8IbwBgPBQDAQDAQDwUAwsGsMhPAG4LsG+K3eJGM3XzGCgWAgGAgGgoH7wUAIbwhvCG8wEAwEA8FAMBAMBAO7xkAIbwC+a4Dn7fp+3q5Ti9QiGAgGgoFg4FYYCOEN4Q3hDQaCgWAgGAgGgoFgYNcYCOENwHcN8Fu9ScZuvmIEA8FAMBAMBAP3g4EQ3hDeEN5gIBgIBoKBYCAYCAZ2jYEQ3gB81wDP2/X9vF2nFqlFMBAMBAPBwK0w8Bfh/fXr13Ou5CAYCAaCgWAgGAgGgoFjYOBWJPQ17Q4J72s6EFvr3vY4hJK7dbm7h7ylftvV7mi5PFq8196vyee6vZi8rcvbtfG8Rv9RahnC+6A/aTgKQNds3kdYk/pt97A4Wi6PFu+193PyuW4vJm/r8nZtPK/Rf5RahvCG8OZL8Q0wcJQDZs3he+6aa+Xy27dvz9+/f7+7/XGteKfy/vT09PIzt3vMxZTP54wnn+uI21Hy9uXLlxf8f/r06W7Ogvfv37/49OHDh018eu1anrM/t5TdFeF99+7dCwh4UG2ZpHvUtTVAP3/+vOkGWpOzjx8/3t3BsiaOJWu2rt8Sm8pAXH7+/LmbPbJVLt++ffuSF84PHig86MzZPbVbxTsXE3nAFnnhCuFdRwzN897yuWcc1rOA+kF2b014sU/OIbmcTVuRXeJ7rVq6F27Vnk14JZUkiAuiVJ33bYi5+lClOMq/efPm+evXr3+sqzrW3nMgY5+WrxJr9fhFA3958K3Vc811+HZKv5sDuanL2GipFWtoqc8p3deY84DRB/pr7VQMrtVx7XVz9av7rNaEcfqs5wXhXKySX/bHJfm9dm7O1T+XS/QRL7gwd7T0qy3OJM4z8jP1MDlnX6Gb+qDPPSiZrnbPvZ+Lt2JEu7T4gf99fzOHX9UP/SZH5gW9VWbNfcU1dsEweuqepTbYrL6P7j2/1vhR16C79vv9Peez+2r/x48fL/nrdXWelvwRO5io40vv95g3Yxfz7Bn2wqk8umZNu6RO6K3PR9assXVqzVwtT619pLmzCS/B1UOfw8mAKQqJ86oHEoDhoPVLIiBy3RYth5IPMO4B7CV68Zc4agyX6Nt67RxAqRG1oSYebK7xS6qxkTdyho/UZevaLIld8qYPaw9hbYlB+/fWWotTftV9VvPBPQexa8/BqvvQtXtol+TSB4uY9xwyfgkx/XqWOG9L7s/ZV/jG/uLsQy9ray3Ve067JF5sIEe90U18kkiwU0lvldOPihPWsd65S9vuG/rwBz+wxf05eb7Un73kU2yTD8986z/KkTJr8bjHvJGnpWfBKKfnjlmDU3VCJ+eV9eXe5zVz7ifnz/UB+SW1XKP33tasJrwUiCRxSZBIfB2/pAC3TpRx3GsMcwClFr4AEIO1Mq88eO81Nn28pO3xXqLrGmvn6odNakidjEXS4T7Tr3vHqn5eq53LJQ8Hc6gPEiz7S9ul+8o9R/2qbvYkOurYufdz8aIPG8iBDfUTs3jyy6pzr9l23/ALEu55pf/2zWWNe8vzq+qdykP3Gbl7yedo/5uzWv+p2NaO7zFva3Oxdt0WdRrV/1x/ltTyXJ33KH8R4eVAIlF+TeUQ8qcLjFNMgqZF1q8szPGWMkqIMrQcMh7QvuFwMLKeeQkAerDrnD75FgQhZ0y7fulAtzLdF0HEg8F7bFZ57tWFbuzXP4VyIBK3MWi/21rTR9fSdW6qqTXkuebdGIhP38kBNbDvS071ocqTF/HBGuTJpXbQV9dWH5BnLflDRj34jw7rTKtM1cU9slzEUm1W+VOYQUevr3F0W2v6U7WousgJeRJ/7jP8rvlzfi1W+/5QH3kDO7Xu+FR9vIf7uVxSc/FADuu5of9zWFCutqf2FTnDZq1TXXvJ/Vy86KZOI/vuJf1yb1Sd5As59zqy7AX0uh75vp/rfmEtOR3FWX2jFuxj9I5kGTuV56k154zX2KfWVZ+rjPm4VT61Twxe+GrO8Iu+tQSX+F/Pan2vcS2532PeiPvUWVDzfepZRM7r3iJX1IDxmttaJ8bRaR2RV7bqQ697q/rjum5DHafaJbU8tf5R5i4ivBaLZFkQAjfxzNNnQ1E8DjcOUzef8zVZVSdFrfIUF1lJpoVFDpsSIPvYYb0+IIMvjAmsqc3OOPLa9AHmgUEs6Ofi8LDPGuNSB7awCVCn7NUcLLnHzhI5ZGpO+xpyiC58ZE6fiYe+88TJGLEiP2W/y1fbECvzwHrzZG57rmuutGn+OwZ6XMpLzCXJHhRiZAoz+EnM6CFm4xZz3d65ffTOrcEWOag55J6r5saa9fyZK7G5BKvoIvZaxxr/Er/n4tp6folPYgxZrlrHOSxM+Vvr0mWsSbXTZdb25+LVtrHSMoY962p/FIPrqbv7gLNLf9UrvpR3L82drfqgHlrWqr+3Ix+7zCV97J9ab3zVX/NnLPZHvrr+WvlUP7aNQz/c89RR/7lHrvvu2qXtHvO25Cwwj+K/P4v8gMA4ueRcZg357rm1TuLHOrGm12nqGT2qf7cz15+r5dz6R5m/iPASZH2LsaACom7AmpBTBRIAtQBd3o2qvQ44bElWJDjqcI12GK++ea+8MWhT+dGhrh9sBAlSjUPdW7Tn6DXW0Rrz1DeXeepx4zt6RrqYWyLfc6sP5rrmTr+0qYx29LPnVHnHtam8tbKPnH6AmVF91bVFO5W/qhvfxJuHJsSAHDiOvLH13CgzisX4PbTVYT7QhY/qwE7PafX1lvdLcol/1LWeV74gmAtjR7ZiYSo2czSy3/M5pWPN+Mhe10MsyNX6IdPHewzuvUpAjUV8oZfLvjrNnzq7bX1Unnll0ed65WyrjGNbttie01d9rrJ9vPv6Gvns9cE//ag1mKpblamxzd3vMW9LzoKpPIpfMWF/VAtzW+d41rHvPJeU8SzyWdj1j+rv2qXtklou1XXPchcTXh+mJMyCdEAwjpyF6fM1QQKgFsB1zCE7VXABhoxrHOt97TBe7XuvfLepvD7Yr34xpv4ah7q3aM/Re8oXa9Fb8zaKU9lRHEvke27VZ67R28d6Xzv62X1R3nFtKt/7yNUx9TOmji1b/JvThw/a9yst6zgQHa9+m7/ue++zpo/V2JkXM9VOz+mc/681vySX1RdfHljH2dRjR3Y0VnVwb45G9n1w0vZ1l/ZH9rrOXl/njV2/egy1j516MYcex+xri5Z5dVTsaJ9Weed56UInD3b/slTl1YdMHd/qfone7rO27yGfYtV64Js5M8eMTdWtyhjXknaPeTOXYpk89LGpPLrGL7zmVew4X3NrndRJC+mVSyFb5+q9+vSv1r/aWHKP3iVyjy5zMeGlMCSLjW8yLIoFoICMQXqROVWgCgD1dfkOIOcFAOv8knOtL7z6gG399PDjAB/FodwW7TkAPeWLtZryaRTnqTVL5K2X+FCffR56jrnx7SujHdqR78o7p03lex+5ihn11/qqa4sW/+b04EO1r0+srePG0nOjjOvsY7dilb46kKWPrm6n53TO/9ean8tlzyN+GQtY67EzX7EwFYc5Gtn3oYeeup68m+M6fs79yF5fP6o5MsblT316DPYrVrpuc4csc9oyrjkdymuDPa5fjlWb6lsSd1239H6J3u6zuvX7lvkUv9YD38xZzedU3aqMcS1p95g3cymWyYM1lktM5bGukfMgy4sc+95nWc1trRNnket8IUVWe3VdvdfnWv86v+R+SS2X6Ll3mVWEF0J3apNYIAtgn4LzJx4/0QugmiQBUAsgCNTn4QOIWFsfLtpgPUBVt6AQlNpBtzK1VV4ftWnclZQRUz20mUOXG0Wijy7vq6019zU/c+uxaw26rMTHvBAHYz3Xxs16dSHb9fU8IaO8subWh4Q+uMnJEWusb7XZ/fJP8uq21aY+atM45zDT64te1mpfO2tb/Jtb2/cZsYipWg9juwSr6jA/YqbaMafie87/15qfy6WYND/G5t6fw8JUHOoZ2adWnlvm1LPP/pTeufGRvb7GmK0fNXOf1X3lOVh1ijGxzlr0uJeQ5XIenNI3LnXW87f6p2/mn7may35G1rmqZ6v7GvuUTn2+x3ziEzGQNzAGnq1BzTEyXNatxzQV+9T4HvO25CyYyqPPIp9fS85J6ySuPCOw4X5y39pnHzJmHUf1n6rZ1PiSWk6tfaTxswkvBbHggKMHa3GQ8cCjUJBcLkDhAUm/r4f0qB/gCJ6qT8LMGP6gAzkPasbRI+Cqz6ylX2VZW/0Q9OjRx2rTuAGcDzVkuReE6MOOYGSe3PjQqPbW3KNvyTp8qL5LKl3r5lGGvPCAcd5x7BF3rW/XxZoqj+1aT9Yyhi4uZFmDD2DCtbT0zVXHQI+Jvv7Sdh+7TeVPYQY95EGc4JMHTrW19n6uftVn8aZPrPWA3AKr1ZY1sRbYwkatwajua/Owxbq5XLIn8dmYaPtenMNC95OcqQ/7o5z0vYU8cvWM6HqX9Ofi7b4hzwVmKpawhT/OkxPGWF/HWccYcx0HjLue+Ppa5GtMVZ51zle9jOsn8nN5rvrX3GPv1Lrug/HeQz7xG/88p8S1fXNc88sc62pezfepPPS5PeaNGMlVzR97QS7R89ixQb++oIkVWvT4TDOX1Y41qHXBXj9HWFOf0aP6q39pO1fLpXruXe5swnvvAR3Fv6MAdK/1TP0u+2daKy6OlsujxVtrfY375HPdXkzexnnjw1f9sg5m/cgHgb0Ghi/VeZRahvD+YwzacwAEWF4bMK9t75x8PJIsX9vIpV9MX8v31O/yfWetjpbLo8Vrna/VJp/r9mLyNs4bX2j5CutXYb7Q+heTS/+6kz0wzvnSvITwhvDe5RvnUgBfKhfCe9kBcmn+t1h/tAfv0eLdAiOndCSf686A5G2cN35uUH/qSJ7o158hnMLjLeaOUssQ3g0IbwA63vi3yMuj2DzKAfMa9ThaLo8W77UxlHyuO7+Tt3V5uzae1+g/Si1DeEN4D/2Fd83hsMWaoxwwW+RqTsfRcnm0eOfqf+l88rmOuCVv6/J2KV6vsf4otQzhDeEN4b2OgtEDAAAgAElEQVQBBo5ywFzjcO46j5bLo8Xb6711P/lcR9ySt3V52xq/W+g7Si1DeG9AdgLQ/RwUa2t5lANmbX7OWXe0XB4t3nOwsEY2+Vx3Hidv6/K2BqPXXnOUWobwhvDmC+8NMHCUA+baBzX6j5bLo8V7bQwln+uIW/K2Lm/XxvMa/UepZQjvDcjOGkD2NUcBaI97L/3Ub7uHxdFyebR4r73nk891ezF5W5e3a+N5jf6j1DKEN4Q3X3hvgIGjHDBrDt9z1xwtl0eL91w8nCuffK4jbsnburydi8/XkD9KLUN4b0B2tgDwUQC6Ra7uUUfqt93D4mi5PFq8196/yee6vZi8rcvbtfG8Rv9RahnCG8KbL7w3wMBRDpg1h++5a46Wy6PFey4ezpVPPtcRt+RtXd7OxedryB+llkPCS/C5koNgIBgIBoKBYCAYCAb2j4HXINa3tjEkvLd2Kvbn3xw5gJKn+Tzda45Sv+1qd7RcHi3ea+/h5HPdXkze1uXt2nheo/8otQzhvcGfs9cAsq85CkB73Hvpp37bPSyOlsujxXvtPZ98rtuLydu6vF0bz2v0H6WWIbwhvPlSfAMMHOWAWXP4nrvmaLk8Wrzn4uFc+eRzHXFL3tbl7Vx8vob8UWq5GeH9/v17iNMrEqejAPQ1NvstbKR+2z0sjpbLo8V77f2ZfK7bi8nburxdG89r9B+llqsI76dPn/76j9o64UXm58+fL3Lfvn17fvPmzV+EmLGvX78+v3///q+5Dx8+PP/48eNlPe27d+/+kqGw6MAO9mqhkccuhWT+6enpj/kq+4j3SwFKHsgx8lzUidySc8dGLbljrTVUhv6XL1+e3759+zufyDnP3FQ+Kybwg3UjWeSsPfbwX3vamWpH+u5xDP9P+UUOpmJknPma97qHwDoy5O6Ujb3MzeWSOMEP2BTP4K/m7JFysSRezz5k67W3c3CLui3JJ/ip5yjnE3twC/uPqmNJ3s7BIc/yz58//96jPmtG3OFRc3avfi+p5b36fo5fqwkvQJ4yBKECrDyQASsPly7Pw8aHT3/wcLgw5+Hsg2oEfA4hZPvhg03JlwSg25ny/xHGlwDUPJIHcsdFHbjMPzLEiz5zSE6tF7WstlhHbq2vufKgst9basAa7OEHNri6nHqslX7axxd8Yp2xcP/x48c//Ox6761fczryjVoQH7kiduRp6deHrfmiJlUPa81THd/j/VwuiZl8gBHu3Qfk8RHzsSReYiNO42P/PWq8xnCtdkk+2V+cV+bU8+Yoe2yU+yV5OweHnGXI+0zy7Gd8ZD9j231hXlLLPeT7KoSXg0GySZIknAKZQ0JyRaIlMyaUw6QezqxDDj3K0CLHZuBhpj7G/fKlPcbQV32qeh7xfglAibfm0dyQL3Je84E+c0j+kEEeuW6LQx/yWgmrBG0ql32eumnPNVN1RlaM1HjwUT/RgU/quve257T7S27EuzUwB+De3NFSR2JnXD3W2P6e27lcjmL33BjN3fvYmnjZN2Lm3uN7bf+W5BMZ95/+MVb3nONHaZfkrefiFA45szpGGavPma4v/W1I75paPmLur0J4SV4FrgS0HxgkDNk+Dsi5akJ5oFedkCPeuv1aU+e47wVk03SdVf+j3ff4Rv73OoxkHJuSpTYjWxCGOk7OT+VXDNDykKhkWx8Yrzodn2pHOJmSvbfxc+K0Bn2fEBN592KP+AWK3Izk7y0PW/hzTi45N8AZ50F9Id7Cj9fScU68+MQHBtaIjdfy81HsLMkn+wnMmEMwVPfbo8S6pZ9L8lbtzeGQcwxC7L7k/CLHRznHaq5e+/7cWr62f1vZW0V4+fIEEAEniYJ4QmR0ijHAa5+WsRFwR+MjIsNY1Vkf6PhS57hHb7XPGGvq2CPf9/hGsSDjV8LRfB1DtubQOWo2stVzvCS/5B9d/hkQzFA764IOMKXtuZZ1rp2Tvbf5UU6nfLQGo/1Dzrh4EJM7XyTIy0h+ysYjjy/NJXlCFsyRJ8nLo8W+NF7jAgviwrG0//oytiSfYIU8IiuG6jPviPlckrealyU49EOKeV76/Kp2cv8vbC/Nxbm1XKr33uRWEd4aBAcBb748RBwneTxc7NMyNnoAj8bZGFx1PX118nbtvbrpc2GDtheQsa6z6n+0+x7fyH9klh4YyJKjrod8jmz1HJ/Krw8L6sbLUa0D63wYc98JL9jCPvjqDxj0VF3d93vuj3I65a81GO0fcsbFWr+gIEdeRvJTNh55/JxcEid5AWdHwA5fy8hP3zuPXO+tfV+CH4hY/cLLnuNM8mvk1j49gr4leTOOJTjk/GJfmlP2KTb8QKKutOcT2rmcnVPLOV33PH8x4SU4gekDluT5EGZesDtfE4JsHx8RGTaCOjloWDe60IUcc9UOpOpRH3A1Du97fI7XFhlzVsdH91Oy5HNkiwdAJafYmcovuZfUQn6pn33WeMCN6oavU76NcDKK7R7HRjmd8tMa9H2CPDmrNTYnPJxH8lM2Hnn8nFwaJy+Ca9a5/pbtOX7v7dy7Rt7n8jn1/GJd3XvX8O2edc7lrfq+BIf1Ge9azzP7abcnu+T0nFo+cg02Jbx+ReArnoSG5PjlCbLTk0Wi+4O5kynWITf1psdcPXi0J5HCJj6ht9t/1P4SgBIzV42RXHOI1DHuew6dR77bkrTWfJL/rpcx7dX6gBNIL77VL9DWrdd5yrdHPgx7Ts33qLUGtH2evNbc+nDm4TGS7+v30D8nl8Yr1uw/Urs0Xs/NusceKc7X8nUun5xXyPT9xFjde6/l773Ymcubfi7FIc+Ens9HPuON/xHapbV8hFhO+biK8JIc/jyNYsDM16RKrJhDhoOCeUBbCbAOTW0EDxhtdALselts9Y3C5sEvZHy4VQLs2kdtlwDUuM0j+aZOnZhah57DmjvzRG3QwcU6x6lR1cucpIvaUw/WIk8dkBVHyOqjuq0VD5lRfdEzikV/7r1dUj9jsI79gcs8ee91o4/+kbw699QuySUyEj+wdQTsgIP6V5g91XzLWJbghzyCGc8ln3H2t/TnUXQtyRuxTOHQs91zyueEfVqeG+7bR8nLI/q5tJaPGFv1eRXhBZgcACSJC2LZNz4PYsDKPPKVHOEAhMd5ZOhXYHOvDeYkS9V57tHN+kqoGJeYMYceSENf+8h94lrif82jee65MM/M1zxzX2tkLns9kWNudHFoUXsw4jz1ZBzf0F8fJF0WW2BJQmzM1h2dfU6Ze27xe4l/tQbkqq6peefeOXJITX1wOL7XdkkuwRo4Q5Y8dgw/Um6WxEs87LP+MvRIcb6Wr0vyyf6qZxhYOsr+mqrDkrydwiH5Q4d55NxiX/rM4Qx7xLN9Kl/3PL60lvccwxLfVhHeJYojc53f2pjXowDUePfWpn7b7Y+j5fJo8V577yef6/Zi8rYub9fG8xr9R6llCO8/HhO0RwHoms37CGtSv+323dFyebR4r72fk891ezF5W5e3a+N5jf6j1DKEN4T395/C12yUrFl36B3lgHkNfBwtl0eL99oYSj5zhl0bY/eu/yh7IIQ3hDeE9wYYOMoB8xoH/dFyebR4r42h5DOE99oYu3f9R9kDIbw3IDtbgP8oAN0iV/eoI/Vb95Ad1fJouTxavKOabzmWfK7bi8nburxtid2tdB2lliG8Ibz5wnsDDBzlgNnqQD6l52i5PFq8p2q/xVzyuY64JW/r8rYFZrfWcZRahvDegOxsAdajAHSLXN2jjtRvu4fF0XJ5tHivvX+Tz3V7MXlbl7dr43mN/qPUMoQ3hDdfeG+AgaMcMGsO33PXHC2XR4v3XDycK598riNuydu6vJ2Lz9eQP0otQ3hvQHa2APBRALpFru5RR+q33cPiaLk8WrzX3r/J57q9mLyty9u18bxG/1FqGcIbwpsvvDfAwFEOmDWH77lrjpbLo8V7Lh7OlU8+1xG35G1d3s7F52vIH6WWIbw3IDtbAPgoAN0iV/eoI/Xb7mFxtFweLd5r79/kc91eTN7W5e3aeF6j/yi1DOEN4c0X3htg4CgHzJrD99w1R8vl0eI9Fw/nyief64hb8rYub+fi8zXkj1LLIeEl+FzJQTAQDAQDwUAwEAwEA/vHwGsQ61vbGBLeWzsV+/NvjhxAydN8nu41R6nfdrU7Wi6PFu+193DyuW4vJm/r8nZtPK/Rf5RahvDe4M/ZawDZ1xwFoD3uvfRTv+0eFkfL5dHivfaeTz7X7cXkbV3ero3nNfqPUsvNCO/379/v+ovjhw8fnj99+nTXPp4D1KMA9JycPJJs6rfdw+JouXyNeD9//vz8/v373ZyXp86G5HPdXnyNvJ2qW+bW1W2Ut6PUchXhhTiSoHp1wovMz58/X2S+ffv2/ObNm78OT8a+fv06PFghqD9+/HhZT/vu3bu/1lM4dGCnk9nqm/foHBX7EceIaYnf5I0cmwPqZB7IHQ8260SeP378+KL3y5cvv9fUtU9PT3/YVTc6pmq0xM+jySyp39u3b5+pg/Whdj3Hp+p7lJyuzeWjErol8Vp79zh7Gyw5Xlvy4B6vLWur3F7vl+STvehZhzz57M8c83OUfG6dN/MH7qZ4gTJptyO75HJJLfeQ89WEFxI7lQAIlQQI8PKg7vIcCj7I+4OHw4U5yZUP/dEBzMZAth8+FLDrnfL3EceXANQ8kj9yx0UdrAU5ozbIkQPknKPPnHllLffYrQ9OxhmTKD9iLm/h85L6UYuaf+rBg1Z/5+qr3N7bpbkUo+6DmstHytGSeImHlyHPRvf4KE4J2mjuCGNL8sne41kDdsgJWGKdHw9qno6Sz63zRg7J3RQvqDnOfQjvGgxchfByMFRSBHFlc3jockj4IGe8E1MOk/owYh1yEmADRY4vlJUYODfS69weWuKbi4Ma1Dwiz0NQUtvzJhFQb59nXNJbvzTuPdfmY8t2Sf26PXPv+Fx9ldt7uyaXnhuPmJsl8bKX60eDU3EehaBN5WBJPpHpzynGfImquo+Sz63zNscLao5zH8K7BgNXIbxsBAktTkGORgcGc6NxiJakzKD8UmEfEsxbtySt2pvS69o9tEsPm56XGruEyReROsf9iPCS717fUQ27rvT/PKCW1K/nDJJWX2B6Hbr8Ufrn5BKsQ1J4KZ/C/b3nbUm87HvOxyWxHIWgTeViST45C/sXXp5JnIdd71HyuXXeah7R3V8w6nzu/3yeXJqPJbW81MY9rF9FePnSymbn4UuiOFj7F79OtKYAPBofEd5Ovui7IToZJrH4hl/oZx6ycA8J38oH4prThUz/Kl7XcFibI8hvP7x7zl2L3lpf+tZCmbSnD6Ql9as5pDbguP4Jda6+df2e75fmEswiSx5HeH+UHC2Jl/MPgsaFPNfUGcjZTU48C1h76tx4lDwt9XNJPtl/nIfmknzVZ161dZR8bp23mkN055ly+hlS83Xp/ZJaXmrjHtavIrzVcQ4CDlUOAMdJXiVEjE8BeDTOwcKlPtpKvvhCU/Vrj7HRJmEMmdGfn6qNR7onnjl/kVny4EKGh1w/xGvOqy3z7Rj9Ud6dT/v3wbWkfuaNPQYZ6bVcWl/17LU9J5fkAKyC937GPEp+lsSLDKTer9hgZylefDGYInSPkqelfi7JJy8L9QsvOeK8NL+nbO01n9fMG7rzTPn7uXEKZ5fMLanlJfrvZe3FhJdAJJQClOSxyQ2SQ2EKwKNxHkT9YcQDSp0cNKwbXfqgbduRTucesSX2Ob+RMWdzssxzoEOslCVnfT3kC72VfNGfyru60v55eC2pnzmjLjXfjp9bX9ftrT0nl8YuAbT/SO2SeJHpe5K93ffzVNxHwtZcPqeeX+fk6BzZqZrc2/g184bujt97i39P/szVci+xbkp4/SLAwcrXBZPEn2FJKGTJMdsRsPtvFSVZ9c+5rqdFx9xBDnmDONR1j3y/BKDUoRJY4uUQ8WWCl4iaA3JY9Y4IrzK1lqMaaqPqz/2/SG/N86m8sI+msD1X31N69zS3NJc1Zs+kOvYo90vi5aNA/4tW/WgwFys2+vq5NY86P5dPnmvIdALG2NTe7LnYYz6vmbdRvntO0//X8+TSXMzV8lL997J+FeGtmxfi078MclAiw0HBPOSnEmCDl8j2r1ceMB64nQC73hZb9eDhHjLgn5s4qJCZIszqeaSWeOb89aFuHsk3eZGM1rxZx/pSgKx5Zd661npZw/owQE4bcz4edX5p/Wo9yBV9cs79XH2PktsluURG3HIu1H3waHlaEq9npmege5e+56F71vNZXLHnl/65/tFyN/J3ST55WajPlORz2f+79Zy8WRufKe5Xx9NuR3B7Lpfsgb7mEfurCC/kFSD/f+2dPc7cuBJFd/O24WXMIrwHr2DgFTgeeAGOBo4dOnTmdDKnk/rhGDjz7quh1C21ulstVSBQJIv1c+uSrNZnwIDEwyXswSoIHLj+0wPkPUyd55B1Hh30k+C8a4M5vx673hbdrEeXMhzkrNE/9HBAueYILbFdE0fiKM4W/mDCIS5OWUyJq3N1rbZZkzK+g78y3f77oAKnS7jIfzG1zXVz+U25I79fgyU4yXXOitGZ9CoYXRMv5y0xesYSu/u+Frz1HEDWYvhVMLnFz2vw5G7Jsy4xOiueW+NGDrk35Cz66bN3b8lvr/33/VMxuSaXdc0r9lcVvK8Y6NF8PgtBj5Y34+n8XT6ExepSezYszxbvpfzfOt94rtuLjds63G7l6z3WnyWXXfD+5zVJexaC3mNz70Fn52+7fXc2LM8W7733a+O5bi82butwuzef1+g/Sy674O2Ct/9c9AQOnOWAWXP4Ll1zNizPFu9SPiyVbzzXFW6N2zrclvLzEfJnyWUXvE8odrYg8FkIugVWe9TR+dvusjgblmeL9977t/Fctxcbt3W43ZvPa/SfJZdd8HbB2194n8CBsxwwaw7fpWvOhuXZ4l3Kh6Xyjee6wq1xW4fbUn4+Qv4sueyC9wnFzhYEPgtBt8Bqjzo6f9tdFmfD8mzx3nv/Np7r9mLjtg63e/N5jf6z5LIL3i54+wvvEzhwlgNmzeG7dM3ZsDxbvEv5sFS+8VxXuDVu63Bbys9HyJ8ll13wPqHY2YLAZyHoFljtUUfnb7vL4mxYni3ee+/fxnPdXmzc1uF2bz6v0X+WXHbB2wVvf+F9AgfOcsCsOXyXrjkblmeLdykflso3nusKt8ZtHW5L+fkI+bPksgveJxQ7WxD4LATdAqs96uj8bXdZnA3Ls8V77/3beK7bi43bOtzuzec1+s+Syy54u+DtL7xP4MBZDpg1h+/SNWfD8mzxLuXDUvnGc13h1ritw20pPx8hf5ZcdsH7hGJnCwKfhaBbYLVHHZ2/7S6Ls2F5tnjvvX8bz3V7sXFbh9u9+bxG/1ly2QVvF7z9hfcJHDjLAbPm8F265mxYni3epXxYKt94rivcGrd1uC3l5yPkz5LLYcFL8P00Bs2B5kBzoDnQHGgONAeOz4FHFNbPtvGvgvfZDrX94/xq7Fx2LpsDzYHmQHOgOdAc2AMHuuB9wp+z95D49qEPoOZAc6A50BxoDjQHzsKBLni74O1/w3tCDrx///7np0+fVuX+7du3P3/8+PHz+/fvq9Zvdbj+9ddfv/z47bffnuoH8Xz58uXXPwMD163iO7KevXDoyBi/SmzP2Dt7OjtuOYtfJcd78fPwBe+3b99+Qu4tAUfnPS/7d+/evcTlScHEv+3aQ8GxZX630PXmzZtfxdjaojJ9kA8fPny4icf4QqFKvuAwPqadpe/kfumaW+Urrl+/fn0q/8CRh7jA99ULXnIKprfmaWq9XKZF5p7n6JQPzxjnDpInz7C/R5uP3jt7Oju2Pov3mN89+nRzwctGzn/Q7qXsrzbaqcBZp/yUTB2HKKy75vDA9pz91O1BnLHke9rz68THjx8nY0vda97xG2xvLUrW2L5mDUUTlxW4JTbXrE0ZsQTrHH/0O/H41RLMwf8W7FkPPsQ3FYt7x8t/Sk49t/DBIpeC7NbY8BN9nz9/noxtKpapcc4B8E8usdezz1psEgOYsGarAvNSLjwf0n9s4w8PZwH+5vwrvoMpe/ESJ2tsYMC6xIDcZZ81jKGb/DF3yx6rPmTfOCp/UmaUU+cvnUvX6FcXccLtubNA2aXtEj+W6r4kr+28J8lrvRdHOD9j79zr7EicxGSOd1uexdir52b60+///89VVhe8JA2iZ2J5r30SMgLd9bSj+bkxLux6kFZ57CJXx6f6bEqIoz95ePPFI+NCB4fXFl9CsIPtkV/EOIXfSP6RYxweYoWfvq/xgcMPHNas3WqN8YA3vtBfq5tLHL5cusyZn8s/9vHHog6erOUDOfLC3aLg3YL7xOdlCA4+7jV89h1Z8HJPEwvza3NU113KhX7mOnFMv3L+lnfi3jK+Jb6ArThfWoeP5s1Wv2sMYGgxlLy+ZOOa+VF+2MPJn6pntCZlLp1Ll/Sri71yy/monqn2Wj+m1t8yDr5izD4gr9yjyZ8Rzo/eO7lHtz47Kn6X8sH+mDqL656puu2LqXuO1jwo0+3/F7vgsbrg5YtIBRiye9ihnCTcY6Njm4RvmVD05SbFd2OBnDXWLWyDDXa2jmUL3x6pw837SJt7sdX5/9+hxB67xz67Ntd7ygVnnOfPtf4/Wy7PzEf7wt2D/bQLfrfw6dK5dKv+9PWW92f6Mdqz/KghFxZ1t8S2Zu2z984t+Vjj+ygHa3A7w5pVBa+Hy1wxy2FB8izq2ACsA1QIQT8LzBHYrEeOh3dk1Me7c+ijr1/KOpZ9xq550K1e5dXvIcqG5tcsssjoL2P0c94vG+piTvmMw3eLYGzpC/7wJyPX8QUCDJlnnF+x6sdX5dRJ67xtxoQ+fOdhPH3kV6traOkbO7b9Cln16QPjuT7fvVjm7LFeXbQ1N/T1R//Thu/pd8qBHV9iwIjxqt/1tlP2iAE81OOXDNfVFjmwM8+0mcfUR9ziXPXQT4zQmznLuDNfIz1+DUEHD3YzN3JT7iVW6QPr5s6IGhvy7i30YNs+fk7lCD3mPnUSM2umsK2xY8/Y8IU+nPj999//0Z9rEtPMs2vJlZwyr6xJTFOf7/IHOR7Wpk7jEXd8dgwcpjiiXnSBE496wRusktfo1KdRm7nWvj6NuJG5wa5+Zq4ZIwYextNHsJvyw/yLGZjgC36hJ3WiA72uGelkDB3oq/L6MaefNZfwTKyNt/qSOCqPLP4re8kP9qB6iAf5GpO65IP7wPGpFnxHPNHOFM6P3DvGKv/Bb2q/ihOy5M+40185NoobefPBu9zO/DImzugwl/p3ST/yyqKHR1+wzXr7cpgx/KFljxGbZxNjvKNXeWTpo4d5Hmwy/srPqoIXEAR0KniTTjKQgUg8yrOexNuvLQArTxJ8Z41JYI12XF/t1D5r1eWaUYt9dNc51vM4LsHoQyLWZXHLPGRSPlvJRes4ZESHY+pED35rGxneOcx42FDahaipg81qHrSTLbpzPf4i78HuL3YPAOUtZvALe/ad1x8Pi7SZ7+JQ7anP+XpByh/tETc+ggtjaYN39BCnevFbOdYQN+srflXPlD3Wot840EN/jm/mMe0al/r0ETzRx3j1iT66EiO5or8Zd+ar6mKdBz5rsAl25oHWNehJ/8SQdXDIOeVtjU1slNdn5Fibfd7VX3Okb2CPbjmLfvrKi49+ZEssxoZtfUNG/cozT3z4jf4aK7rwl3lt0+ddeXmizmwTV8fVyXp8wwf0pR/gk5i51hZZ9yVj6ODhnbW+G694uN7Weblq3/XI4Yd9fIZH9iuXGWde3/AFX8XIfKJHH7JlPfjUMXTqozqV0Wf7ta3zxKMuZPXZsap/Dk/XyofEqvrBHFjgD/HTR7dy6pryw/2rz4lTxc2YadU/apVDVz7KMoZu+so6x3hylndlkWEtMW61d+SeXAJzMMn9nTaxm1yEe+kvvuVa47IlFmToY5u12KQvFuJLHpVlPnFTX7bGon18RX/q4OzOPnGjF1labDOPbfTxsIbHWKsd65L05RXfVxW8laAkGCB53HQAipygeEDbF3j72SZhcpx39LDWcWRNPmPY1IdRP31Ux6hFDt11jriSTMauHL7kYYQsRHM+20p+5kZj+MJDbG4c+m4a1mFHf9Whrdp33JZ1GVOVt0/Lmpp/xvDHy+qSPu3aqt8+my3jA9P0Dzn64jzyR13Zgh16kx/MexCIrfrFM3XwPmUPvehPeXRweOZYvmecjHPoaBd9dW2VT13IcriBX46P/EWP+UpZsTDXOWeecg49+puyvCcn69wIK+Qzz+i1r19TOdK3tFOxmvOVdcpjN88U5qp+ME380tfUpT8VixqrcrYjX/VPmVFb/agy8AOOOU4clS/Ozdkb7cnqc8Z8icvV74q3fVr9y5b12K9j8ofxemmrM9fku/Pgw1lDDDlffa76U5b3xHO0J6u8/cSRsWq39uf8MCZ1V9ycp1Vmrp3icXJBnep59N4ZnTXEnWdr5gY/E/OKb+0bl63znFXoyTOr1gcVm8RNfdmOYqk5qH38QS8P+9+zNHMsZ8AEGyM76cervq8qeAEOQDJoSJyXBDIJKPP2a5JTD+/IVv3K1DmSq6yJVNY+rWPXtvgPUar8FJmUMzYOSd6Rd662ytI6Nxob+VLxxY7+ssGYh8ToheS5ubVl6wa1rw+1r59T/mj/kj712lZ7jGd8FXPmc2zkj7prCyZwCDz0V/voyWcqd1P20Mdc2hyN5Tzy4sp45tG16dOUbdZ6wCLDXrSQGa0ZjaFDLNIn/R3NpR7s4TMxMJ5z6rA1Nvu0mVP66uJd2+q1NUfOpz5kMo45f1inzpFc1Z+y+a59xtJ25hWZGqvrbEc+VJ3Kcv6hD04jIybOZ5tnIv7lmc0cfQpi9EzZQ9/If+TJmfaQsW++1Wub8+l3xdt+YqodWvXXsWt05pp816a+VtvYnNM/h2fFKu3W98SRueOuT5cAABC8SURBVGq39vVbPfQp2Dn3jMW5iptra6zK1xbfEgPnseMPQnXmnH5km/Npv8Y/ZTPXE5f9GiPjdQw/pmwSB3uLfHLGYd+PLdrIVt3oZJ3nMDKszZh91zb99D318q7uHK941H5dYz60ia46VtekvVd+36zgJVEWnoInMB6y9gGTpNivLboyGc6rh9YxZO1jn03tHHay7/g17RTxIHr6PiIGNtkkyI7i0L6FacqMxka+VIzwCV/UjW0vQC4w9DpX25qPmj/7+oleiujUgz/m/5K+XMe7+nM84yOW/CqFHPF6WeNPxp56pt6xyTp8FnN5NLXG8Sl75By/84DDrzkOZpzozzyib26t/tSWOMAr8ZnLV64XC3N9aQ7/xd5iiR8VXgzOpR7eGWdtjhM7j2PI2NevqRxd4hA601dtZGsutJUYVP1yJ9fnu7ocy7wyVmNVznbEsaoTWfirL2CTmKmrtnDD8ynxhGt5Zo3sqWvkP/KZ74z5Eper3xVv+5kTfaF17+XYtTpzTb5rU/3gXPc2Mbom5Rmbw3OUX/XUNnFkrsZV++kH+TUv8Drn0FVxc562+jHqj3gAJ7Ept9Tpevlqv7aVdzX+kc3UUbE1xpq7PFvnbLKOPYMMD3skdaVt3jMfyOKvMvQ9lx3Ltvqec7yjGx9yvOJRbdY1o/PNL7zmTMzSzhHeVxW8FWABFaxMOCCxATLpJByZKQAhImucJ8HoZixJykbKftp1LsmFD9lXf20hMzZHPjKGTWTwCX2VgPqZMVcb9lkLuSChMTuGDHN1E+ifX3CRY0Na1KDrGtv6wDrW25f89j2waBkjZnzCDn0woe8hMKXPefXaVnvGpz1wARPxGflDTuQfmCmrDf0UI2ywBlnmeCcufZzSgSxyI3vYx0/mkaOP3IhHzNc4GSMPyqtPH5FHt3Ei7wMm5Fz/OfR4mGfNXL7UYYvPrEVXtZncBOOMD/viiz/JSXXbeugam/4nbyuPsEUsxpg5kkPO0eIrerVJX2wds63y6AYzsa768YP4nMeOsauLNerPvDJGnBmrcrbMmQN8HulEljl0844vrLGvrtoSm1jmHPjoM7klfvspxzs6kPcMqFxABj/EBN+QZx1zxJNcrrkWb+2CL+szn87ROo8/+EKLzsS46rSPL6nLd+ftV2wv6Z/Dk9jJgfwBF/zWVraJI+MVqzk/xIUYeeALfhmz8+DFmHkVZ2Sn9gy+VB7LG3wyBnHU5qP3jtzDLj7Rz3MLvzJXyCTmYDKHgXHaZj7QjS3xEB/xxRd45dq67x23JU/46j5CT80BvmIT2+hnnjXqoGWeGJHh4R05ZcTMuKufyr1au6rgJUgA9BFggwc4gWJMwB0DbNaadNfZQgp10zoOYSUtY7wz7xj6XIdN57XL3NShog1a/UMeguUciXceEmtTH5CFQFwWU/GlPnRgB39Zx5xj2OGwYC7n2SCswQbyHlL6i4/M0feZurzcQMi5iVxrTMZLa3xiyzo2izjN6cuNLQbIV3s1PmTJoXL4kXkEt1xjvrVhyxpjwW/WiDl+gDHj2JnSga45e+RLG+jxoNOHbJWjZbzmkbHUhxz91OE7/pMH/K85wd+pfLk+29RVbYIL+hkXM+LkHXx55+Fd2cxV2iHeKXn0GYu81B7jrMsc0WdcjskHsTV+5NCTfvCOnHHR1z7yxpX6K6bol0vaZi26zKu20YcunilstCnOqTP9513fp86jGit+YrueT3nuoJf9oM9VB30x1ceUN2bs6O8Ul5kXD3ONXcawgS1jpB35QkzuX+IYYaxOOVL7qRefnNcHY8KHP//88x+fzaHy6p/DE38zp8nl9EOb4lixuhRn4gI+5j5xFLfRPHav8c38oUM8jKPigg9yxxwzhnxiQt/40UHso3i1Y4sM8sTIGsaTe8yRG+WnbIo5a43PFt3cs+qwHfmnfs5n5MBTTMBLH5kb+a5uWzBhPQ/y6MMv3pFBH/4xBs76T6sOZMw7cvhoDpRBn3qqn8q8Wru64H21QB/pLxsBgjzSZtpiQ3hIO84Gf6ZP+tHt/77KNhaNRXOgOdAc2DcHKAYtJs0VxevUDwFlut1fXrvgjT8L30pQCkp+JbFB6teTW3UvWY8f+YuNApx+LYKX6NyDLJjya3QPvjzSB+N+JqceGW/b2t9F0TnpnJyVA9w5Wdz6BbUWwa+ID7VCxvaKMSzxuQvejQte/szAF9YlSdhatv65Ap8oduufLLa22/r6UmwONAeaA82BI3GAwjb/uRh/5j9TkXikXHbBu2HBeyRidCx9aTUHmgPNgeZAc6A5cBQOdMHbBe9Tv0YfZSN1HH0pNAeaA82B5kBzYL8c6IK3C94ueJsDzYHmQHOgOdAcaA4cmgNd8DbBD03w/rW931/bnZvOTXOgOdAcaA48igNd8HbB2wVvc6A50BxoDjQHmgPNgUNzoAveJvihCf6oX45tp79SNAeaA82B5kBzYL8c6IK3C94ueJsDzYHmQHOgOdAcaA4cmgNd8DbBD03w/rW931/bnZvOTXOgOdAcaA48igNd8HbB2wVvc6A50BxoDjQHmgPNgUNzoAveJvihCf6oX45tp79SNAeaA82B5kBzYL8c6IK3C94ueJsDzYHmQHOgOdAcaA4cmgNd8B6I4Pwf3z9+/Pj522+/HZq0/II+U6xH+mLw9evXU/DzSDnrWPb7xapz07lpDlzPgU0L3s+fP//8+++/D19sjQj27du3X0XYaO6eY2/evPlV5H769OkX7kcuKI4SK3uEPG3BCwp/uLeFrpGOW3mdOYOjHz58WOXru3fvfp0tHz9+XLV+FFuPXX9RNFaNVXOgOfDqHNis4H379u3VFxKyfIlcWxx/+fLl11qLvGcngUucYh9/tvIJnWCUxQy6s0/c2H3//v3P79+//yomeL8VD4oKcsNjgULrGPjjh/1RS4FyrR/PjHXkI0UkMc3FcGl+pNcxsZzTr+xcCx/gCPtpTq7Oab9yaSR3K6+Tn0v9rP7AO+KliK5z3e/LuDnQHGgONAfmOLCq4J0qvLhI54zlHIUZRUOOLXln7VbFZbXr16Q6PtXPr3VcylNy14xrm/h8LEwq7lz82qOY2BIPCmh14ze2KAQt0vCJYoY57JpL/OBdubmY9xJr9ZdY61iN49J8la99cEp86/w1/Vu+5pM7eTVl61Ze34OfnDH9lbcvtSnO9nhzoznQHJjiwKqCl4v60mU5ZdBxix37S1sKji0LvLTvF7Ace8Y7GN+K81q/sSu+FC708wsdff+tcBa82KNQuqbgTd/Qx5Njj3gnhlHxOhp7hD+PskHOnoH3o+JrO33pNQeaA82B5kByYHHBy5chioF8LBC9QLPPl1z/RMy4xi14KaKc94uhMtmyVjnsYN+CrPYtwBjXDkUb78ryp9HRn/+xw1zG98cff/wzlv5a1OG3a/gxgC1811/sMI5Ovpw6n/Hxjm7mkWMtD/4yl5i6Dj0Ul8hjXzzQoz+pEz9ZIwa0U74whz7W806r3dqKdx2f66dfz4oVH8yR+RZD+uRthJVrzH/GmflDf9ogh+CNDfOD/lyf76zVPv6gm/lLOlI/drCbenlHBt3yfSQ3xevUhS9yEB/BBr+RoRUP9OfeSB3uDXzSd+TVgyw/TJTDDnKM55jy5ie/UKe9fu9LsDnQHGgOnI8DiwteSMJFWS9qL1BJ5MXlnx+9PJ2nWODiYpwx/92oXw2Vo1XWi9u+lx6Xbl6CrOGi9UJnjsuQixD9XtI1Bm2ilzX20wf9RRd+IJt6edcv1qEHO9jl4SIXk9SPTxYFjCOLrvQRvdnnnUudtcSHLXyq/jIvvhYdyo+KftajG308+IU/6W++j/DK+fq+p1jlkrjpq3lLbOUfMom1a2zJW+YYfOQE+fJ9yjZ6KkbkCZvMzelAt8UiOsij9vSPVjljQid+K8M8ffKOHt6n9GADGR72HXHxjh/uF/iW/NaOLTqw4Vr6+OQ8a80RfogF89hMWeTQhQ+u7/Z8l1vnvHPeHGgOJAfuWvByaWmMSygvqdrncpoqIijSUhc6kc0LuPaRZ4yL0ktdX2hZW3U6Xy9Uxqu/ynKx1uIm9daYmEu/1YOPyNqnRTZ1pc8UIshTSLgmdY/8rb7QH/mibeeIMQsK7dkiV313btTuKVZxok1fK1YUVeKBXJ3PtRR5yDs2V3xN6RlhpL7apg5spZ9V1j4yya0sqJG5xGv1wH1kK34j/7HJfnRttsldxqt/KWvOHMNW6mUtY85325dec6A50BxoDuym4IWMeXEnObkM83JWlotNOdZmf7SGS5BxLkfkq051oYd5+7T1knUOudGT81kMYDP9VG5ks8aAjD7rT7Vd59VPi2z6Qn/kC7Lpp7Zybeod+Z7z9X0k/6xYp2KrWCUexFPnM0Z/jNCinx9szjNGn4IYHVN6RhhdowN9Uzl1PS0ycoW+OCijb7V1Plt0sacofP2Lwcj/0Zh6Kr4j//wKrU+u9WsytnnHj/6625eb/Oi2udAcaA7AgVUFLxdPXpYoqhdU7dcLtfbRwUXGeCUntqo9ZLGhLBdu9usavwLRUnRU/9RD65//c2zkL/PYnfuaVGPCr/RTG4wha5+2xpA++08SiCXX+D7yt/pSMXStttNPi41RITHyPXXV95H8s2IVx8q7ilXNW52vMVLQwiNwyxxRjDGmvSk9Iw5qY05H3QeuqW1yibnKl0u8rvro6zPx+p58wSa+j9ZWfNM/9MlV8lV9RR8/IsAVu6wd2eixvvSaA82B5sB5ObCq4PXi4jLz3+jVP+PWvn8y9QK0L/kYv3T5++d7CkwuzrzYuDC58NDHhcg8Y+pH1j8zc4Eia18ZWy9U7GGLVn/1X1m/1lnUsFZMjIm1ymPTecdosUH8XNj00YP/GUPFlBixr0+stfiu/uoLerVrEWE/W/xEt2PEN1VM4Re6lLVNzB2j3Vus4m6+R1iBh3xzPvOa8fFOLsxPzmHLdeQKTO2nXBZ5jMtZ3ud0kDPsysfkROonZ8kt+aLMHK+VoUWH/ptXWv2XQ/TxSwxTB+91XyTX3Y/gzoMOMOBdPdpDT47XPaR8t+e99Dr3nfvmwDk5sKrg5ULj8vIrkBddFg6824dcyNKn0ETevhci48wzPiIjcsxjl/VcbMjyjrzFA2NciDzKMo8cfXRwmXqJaj9tcmFyUSrLnP6io8rqG/K8e+HWmCg+kOHR79TFPHZ4iMeLnXfkXYsc6xjTT+NWn/7iA2P6ov/6jFz1Jf3EtrbUCfbaYV6/tOWcObCf7V5ixScLdrAkd/JErBIPsBJL8MiY8h094JI/MNIWus3fKAfIgq2+4Jt50t+RDuymf+Qg/VKvOTO/5tYcokeOIJu8Tn344lpa+s5TCOt/nVOGtuJLnPrHHL7Ic3PEPLpTD3M1XsZ4Uq7fz3nZdd47782Bc3NgVcHbpDk3aa7NP0VSLUCuXdtyzbGlHKhfd5eub/nmXHOgOdAcOC4HDlfwjr7yNIEfT2D+xEzB29g/HvstMd/7F1J+UPElmS/B/ePqtbm2JW9bV3OhOdAcqBw4XMFbA+x+k745cFwOUOT6Ty46z8fNc+e2c9scaA7cyoEueP/TJLqVRL2+OdQcaA40B5oDzYHmwJ450AVvF7z9zw6aA82B5kBzoDnQHGgOHJoDXfA2wQ9N8D3/2mzf+mtIc6A50BxoDjQHHsOBLni74O2CtznQHGgONAeaA82B5sChOfBfyUTI7E5tulAAAAAASUVORK5CYII=;" vertex="1" parent="1">
          <mxGeometry x="160" y="60" width="700" height="389" as="geometry" />
        </mxCell>
        <mxCell id="_NCpMEQ4pB6o6P57JlgW-4" value="SUBJECT" style="whiteSpace=wrap;html=1;align=center;" vertex="1" parent="1">
          <mxGeometry x="490" y="660" width="100" height="40" as="geometry" />
        </mxCell>
        <mxCell id="_NCpMEQ4pB6o6P57JlgW-5" value="GROUP" style="shape=ext;margin=3;double=1;whiteSpace=wrap;html=1;align=center;" vertex="1" parent="1">
          <mxGeometry x="100" y="660" width="100" height="40" as="geometry" />
        </mxCell>
        <mxCell id="_NCpMEQ4pB6o6P57JlgW-6" value="BELONG_TO" style="shape=rhombus;double=1;perimeter=rhombusPerimeter;whiteSpace=wrap;html=1;align=center;" vertex="1" parent="1">
          <mxGeometry x="280" y="650" width="120" height="60" as="geometry" />
        </mxCell>
        <mxCell id="_NCpMEQ4pB6o6P57JlgW-7" value="&lt;span style=&quot;border-bottom: 1px dotted&quot;&gt;Attribute&lt;/span&gt;" style="ellipse;whiteSpace=wrap;html=1;align=center;" vertex="1" parent="1">
          <mxGeometry x="50" y="750" width="100" height="40" as="geometry" />
        </mxCell>
        <mxCell id="_NCpMEQ4pB6o6P57JlgW-8" value="" style="endArrow=none;html=1;rounded=0;entryX=0.5;entryY=0;entryDx=0;entryDy=0;exitX=0.5;exitY=1;exitDx=0;exitDy=0;" edge="1" parent="1" source="_NCpMEQ4pB6o6P57JlgW-5" target="_NCpMEQ4pB6o6P57JlgW-7">
          <mxGeometry relative="1" as="geometry">
            <mxPoint x="-50" y="770" as="sourcePoint" />
            <mxPoint x="110" y="770" as="targetPoint" />
          </mxGeometry>
        </mxCell>
        <mxCell id="_NCpMEQ4pB6o6P57JlgW-11" value="" style="endArrow=none;html=1;rounded=0;exitX=1;exitY=0.5;exitDx=0;exitDy=0;entryX=0;entryY=0.5;entryDx=0;entryDy=0;shape=link;" edge="1" parent="1" source="_NCpMEQ4pB6o6P57JlgW-5" target="_NCpMEQ4pB6o6P57JlgW-6">
          <mxGeometry relative="1" as="geometry">
            <mxPoint x="360" y="690" as="sourcePoint" />
            <mxPoint x="520" y="690" as="targetPoint" />
          </mxGeometry>
        </mxCell>
        <mxCell id="_NCpMEQ4pB6o6P57JlgW-12" value="N" style="resizable=0;html=1;align=right;verticalAlign=bottom;" connectable="0" vertex="1" parent="_NCpMEQ4pB6o6P57JlgW-11">
          <mxGeometry x="1" relative="1" as="geometry" />
        </mxCell>
        <mxCell id="_NCpMEQ4pB6o6P57JlgW-13" value="" style="shape=link;html=1;rounded=0;entryX=1;entryY=0.5;entryDx=0;entryDy=0;exitX=0;exitY=0.5;exitDx=0;exitDy=0;" edge="1" parent="1" source="_NCpMEQ4pB6o6P57JlgW-4" target="_NCpMEQ4pB6o6P57JlgW-6">
          <mxGeometry relative="1" as="geometry">
            <mxPoint x="420" y="720" as="sourcePoint" />
            <mxPoint x="580" y="720" as="targetPoint" />
          </mxGeometry>
        </mxCell>
        <mxCell id="_NCpMEQ4pB6o6P57JlgW-14" value="1" style="resizable=0;html=1;align=right;verticalAlign=bottom;" connectable="0" vertex="1" parent="_NCpMEQ4pB6o6P57JlgW-13">
          <mxGeometry x="1" relative="1" as="geometry" />
        </mxCell>
        <mxCell id="_NCpMEQ4pB6o6P57JlgW-16" value="Sub-ID" style="ellipse;whiteSpace=wrap;html=1;align=center;fontStyle=4;" vertex="1" parent="1">
          <mxGeometry x="490" y="580" width="100" height="40" as="geometry" />
        </mxCell>
        <mxCell id="_NCpMEQ4pB6o6P57JlgW-17" value="" style="endArrow=none;html=1;rounded=0;entryX=0.5;entryY=1;entryDx=0;entryDy=0;exitX=0.5;exitY=0;exitDx=0;exitDy=0;" edge="1" parent="1" source="_NCpMEQ4pB6o6P57JlgW-4" target="_NCpMEQ4pB6o6P57JlgW-16">
          <mxGeometry relative="1" as="geometry">
            <mxPoint x="160" y="670" as="sourcePoint" />
            <mxPoint x="160" y="630" as="targetPoint" />
          </mxGeometry>
        </mxCell>
        <mxCell id="_NCpMEQ4pB6o6P57JlgW-18" value="ENROLL" style="shape=rhombus;perimeter=rhombusPerimeter;whiteSpace=wrap;html=1;align=center;" vertex="1" parent="1">
          <mxGeometry x="90" y="570" width="120" height="60" as="geometry" />
        </mxCell>
        <mxCell id="_NCpMEQ4pB6o6P57JlgW-19" value="STUDENT" style="whiteSpace=wrap;html=1;align=center;" vertex="1" parent="1">
          <mxGeometry x="100" y="500" width="100" height="40" as="geometry" />
        </mxCell>
        <mxCell id="_NCpMEQ4pB6o6P57JlgW-20" value="Information" style="ellipse;whiteSpace=wrap;html=1;align=center;" vertex="1" parent="1">
          <mxGeometry x="160" y="750" width="100" height="40" as="geometry" />
        </mxCell>
        <mxCell id="_NCpMEQ4pB6o6P57JlgW-21" value="" style="endArrow=none;html=1;rounded=0;entryX=0.5;entryY=0;entryDx=0;entryDy=0;exitX=0.5;exitY=1;exitDx=0;exitDy=0;" edge="1" parent="1" source="_NCpMEQ4pB6o6P57JlgW-5" target="_NCpMEQ4pB6o6P57JlgW-20">
          <mxGeometry relative="1" as="geometry">
            <mxPoint x="160" y="670" as="sourcePoint" />
            <mxPoint x="120" y="630" as="targetPoint" />
          </mxGeometry>
        </mxCell>
        <mxCell id="_NCpMEQ4pB6o6P57JlgW-22" value="TERM" style="whiteSpace=wrap;html=1;align=center;" vertex="1" parent="1">
          <mxGeometry x="490" y="760" width="100" height="40" as="geometry" />
        </mxCell>
        <mxCell id="_NCpMEQ4pB6o6P57JlgW-26" value="" style="endArrow=none;html=1;rounded=0;entryX=0.5;entryY=1;entryDx=0;entryDy=0;exitX=0;exitY=0.5;exitDx=0;exitDy=0;" edge="1" parent="1" source="_NCpMEQ4pB6o6P57JlgW-22" target="_NCpMEQ4pB6o6P57JlgW-6">
          <mxGeometry relative="1" as="geometry">
            <mxPoint x="260" y="860" as="sourcePoint" />
            <mxPoint x="400" y="800" as="targetPoint" />
          </mxGeometry>
        </mxCell>
        <mxCell id="_NCpMEQ4pB6o6P57JlgW-27" value="1" style="resizable=0;html=1;align=right;verticalAlign=bottom;" connectable="0" vertex="1" parent="_NCpMEQ4pB6o6P57JlgW-26">
          <mxGeometry x="1" relative="1" as="geometry">
            <mxPoint y="20" as="offset" />
          </mxGeometry>
        </mxCell>
        <mxCell id="_NCpMEQ4pB6o6P57JlgW-29" value="" style="shape=link;html=1;rounded=0;exitX=0.5;exitY=1;exitDx=0;exitDy=0;entryX=0.5;entryY=0;entryDx=0;entryDy=0;" edge="1" parent="1" source="_NCpMEQ4pB6o6P57JlgW-19" target="_NCpMEQ4pB6o6P57JlgW-18">
          <mxGeometry relative="1" as="geometry">
            <mxPoint x="20" y="720" as="sourcePoint" />
            <mxPoint x="180" y="720" as="targetPoint" />
          </mxGeometry>
        </mxCell>
        <mxCell id="_NCpMEQ4pB6o6P57JlgW-30" value="M" style="resizable=0;html=1;align=right;verticalAlign=bottom;" connectable="0" vertex="1" parent="_NCpMEQ4pB6o6P57JlgW-29">
          <mxGeometry x="1" relative="1" as="geometry">
            <mxPoint x="-10" as="offset" />
          </mxGeometry>
        </mxCell>
        <mxCell id="_NCpMEQ4pB6o6P57JlgW-31" value="" style="endArrow=none;html=1;rounded=0;entryX=0.5;entryY=1;entryDx=0;entryDy=0;exitX=0.5;exitY=0;exitDx=0;exitDy=0;" edge="1" parent="1" source="_NCpMEQ4pB6o6P57JlgW-5" target="_NCpMEQ4pB6o6P57JlgW-18">
          <mxGeometry relative="1" as="geometry">
            <mxPoint x="20" y="630" as="sourcePoint" />
            <mxPoint x="180" y="630" as="targetPoint" />
          </mxGeometry>
        </mxCell>
        <mxCell id="_NCpMEQ4pB6o6P57JlgW-32" value="N" style="resizable=0;html=1;align=right;verticalAlign=bottom;" connectable="0" vertex="1" parent="_NCpMEQ4pB6o6P57JlgW-31">
          <mxGeometry x="1" relative="1" as="geometry">
            <mxPoint x="-10" y="20" as="offset" />
          </mxGeometry>
        </mxCell>
      </root>
    </mxGraphModel>
  </diagram>
</mxfile>
